/* XPM */
static char *compoundv[] = {
/* columns rows colors chars-per-pixel */
"50 50 233 2 ",
"   c #03030E",
".  c #050414",
"X  c #080615",
"o  c #070913",
"O  c #0A0A16",
"+  c #05051B",
"@  c #08071C",
"#  c #07081B",
"$  c #0A091C",
"%  c #120E1D",
"&  c #130B16",
"*  c #0E101C",
"=  c #0B1117",
"-  c #13121D",
";  c #1C131E",
":  c #1A090C",
">  c #23111A",
",  c #3D1518",
"<  c #300C0E",
"1  c #060521",
"2  c #080722",
"3  c #0B0A24",
"4  c #0E0D29",
"5  c #070824",
"6  c #100E26",
"7  c #110F2B",
"8  c #121225",
"9  c #12122C",
"0  c #1A1928",
"q  c #161532",
"w  c #181734",
"e  c #171935",
"r  c #191936",
"t  c #1B1D3C",
"y  c #0E1020",
"u  c #16212C",
"i  c #0F2E3C",
"p  c #1C203D",
"a  c #182A34",
"s  c #16313E",
"d  c #2C2C3D",
"f  c #281829",
"g  c #480D0C",
"h  c #5D100C",
"j  c #491516",
"k  c #5C1714",
"l  c #48110E",
"z  c #671A14",
"x  c #731911",
"c  c #6D120B",
"v  c #57211D",
"b  c #5B2725",
"n  c #4B2729",
"m  c #201F43",
"M  c #1E2343",
"N  c #163B48",
"B  c #202545",
"V  c #212748",
"C  c #222A4C",
"Z  c #272E43",
"A  c #2B3247",
"S  c #252D52",
"D  c #212D5B",
"F  c #263256",
"G  c #26355A",
"H  c #2A355C",
"J  c #293A5E",
"K  c #27355A",
"L  c #3A3E53",
"P  c #2A3C62",
"I  c #243E66",
"U  c #303C70",
"Y  c #483D4C",
"T  c #3F475E",
"R  c #194C65",
"E  c #155565",
"W  c #2A4265",
"Q  c #2B466A",
"!  c #2B4A6C",
"~  c #2D4C73",
"^  c #334878",
"/  c #2C5377",
"(  c #364A6D",
")  c #166779",
"_  c #104F5A",
"`  c #4A5B75",
"'  c #474F74",
"]  c #4D617D",
"[  c #871B11",
"{  c #183294",
"}  c #4E3C83",
"|  c #394B83",
" . c #265686",
".. c #395789",
"X. c #3C5696",
"o. c #197389",
"O. c #137899",
"+. c #3E659A",
"@. c #227797",
"#. c #2E678B",
"$. c #385EA5",
"%. c #0F7CAC",
"&. c #1B7AA3",
"*. c #187AB5",
"=. c #1F6ABD",
"-. c #3C63AA",
";. c #3A62A8",
":. c #2669BA",
">. c #3767B3",
",. c #2B78B1",
"<. c #3B70AD",
"1. c #1C4B8F",
"2. c #47498A",
"3. c #45508B",
"4. c #455C9B",
"5. c #545899",
"6. c #554690",
"7. c #665B9E",
"8. c #4E6484",
"9. c #566984",
"0. c #456898",
"q. c #54689A",
"w. c #4A769E",
"e. c #58739E",
"r. c #5C7083",
"t. c #4464A7",
"y. c #536DAC",
"u. c #6677A6",
"i. c #6977BA",
"p. c #0A5FDA",
"a. c #1878C6",
"s. c #0D74D5",
"d. c #0E79D3",
"f. c #1779DA",
"g. c #1368D5",
"h. c #2672C5",
"j. c #3A79C2",
"k. c #257CD6",
"l. c #2D77D5",
"z. c #1976E2",
"x. c #2A68E7",
"c. c #247AE3",
"v. c #2676E5",
"b. c #3475E8",
"n. c #336AE8",
"m. c #566CC3",
"M. c #4B7ACB",
"N. c #587AC5",
"B. c #6A79CA",
"V. c #19869F",
"C. c #1585A9",
"Z. c #1483B5",
"A. c #258AAE",
"S. c #3095BF",
"D. c #6A8499",
"F. c #598DB4",
"G. c #528EB3",
"H. c #6B89AB",
"J. c #7496B5",
"K. c #6A88BB",
"L. c #63A1B1",
"P. c #1686CD",
"I. c #1989D7",
"U. c #1B93DB",
"Y. c #3686CB",
"T. c #3393CD",
"R. c #248ED9",
"E. c #2887D4",
"W. c #358AD8",
"Q. c #2896DA",
"!. c #389CDA",
"~. c #2884C8",
"^. c #29A5DB",
"/. c #37A6DA",
"(. c #3CBCDA",
"). c #1A88E1",
"_. c #1995E4",
"`. c #1A96E1",
"'. c #2A8CE2",
"]. c #278AE6",
"[. c #3285E7",
"{. c #368AE7",
"}. c #329BE4",
"|. c #3493E9",
" X c #389AE8",
".X c #3287F1",
"XX c #2B96E6",
"oX c #1FA2E7",
"OX c #29A6E6",
"+X c #33A3E8",
"@X c #35A9E9",
"#X c #38B6E9",
"$X c #589ACE",
"%X c #4E90D4",
"&X c #6A98DD",
"*X c #7C97D3",
"=X c #6C91CE",
"-X c #45ABD9",
";X c #54B1D8",
":X c #65ABD9",
">X c #76ADCB",
",X c #4398E8",
"<X c #6D9AE2",
"1X c #46BDE4",
"2X c #58B6E5",
"3X c #4CA8E6",
"4X c #67A8E2",
"5X c #5FC5DE",
"6X c #77DBD6",
"7X c #6FCBD0",
"8X c #6CE7DE",
"9X c #78E5D9",
"0X c #7CF3DB",
"qX c #4AC5E6",
"wX c #5BD3E1",
"eX c #5AC5E2",
"rX c #62DCE1",
"tX c #78F1E0",
"yX c #A4BFDD",
"uX c #879CE3",
"iX c #89B9E1",
"pX c #91BBE7",
"aX c #8DB9F7",
"sX c #86B5F8",
"dX c #88B4F5",
"fX c #91BCF7",
"gX c #91B7F3",
"hX c #89A8E8",
"jX c #88ACCC",
"kX c #8BCAD8",
"lX c #9AC4F3",
"zX c #A5CAF7",
"xX c #AED2F4",
/* pixels */
"+ 1 3 5 5 1 q 6 4 5 1 1 1 + + + 3 @ . X .   . . O . X # X X . + + + + 3 @ 3 @ @ + + + . . + . + + + ",
"+ 1 3 1 5 4 7 6 3 3 5 1 1 1 + 1 @ . X @ . . . . . $ + # # + $ $ f j , ; 0 8 1 + + + . + X # # # # + ",
"1 + 1 1 1 1 1 1 3 1 1 1 4 5 5 1 @ @ + + . @ $ % $ $ . $ $ * $ - z [ [ x k > @ + . + . . . X . + + $ ",
"+ + + 1 + + @ 3 1 3 5 1 3 5 5 1 5 6 @ @ + + 6 7 . + + $ u ` ] L n [ c h h h j % $ $ . . . . . . . + ",
"+ + + + + + + + 1 1 7 3 5 4 1 3 5 3 6 @ @ 1 + @ X + @ 6 r.lX8.` T z x c g g < j 8 % # . . . . . . # ",
"+ . @ @ + + + + 3 + 3 1 1 1 1 5 1 1 1 3 3 @ + + 1 @ @ A pXxX=Xw.n g z x h < < : k - . # . . + X + . ",
". . . @ $ + + + @ @ 3 3 5 5 1 5 1 1 1 1 1 + 1 + @ + 3 ] zXxXkX$Xf g k z x k l < z > $ . . $ . + + . ",
". . + + . 1 + + 3 1 1 5 1 1 5 1 1 1 3 3 + + 1 + @ 1 X U zXzXxXiXW < k z k h b b > 8 X X . + . # . + ",
"@ + . + + 7 + + @ @ 9 3 1 1 w 1 5 4 5 1 @ $ + + @ @ @ P *XzXdXfXjXT j l l Y F.9.a O . X . . . . + . ",
"2 + . + + @ + @ 1 3 1 5 5 5 1 3 1 + 1 + 2 + . . $ % 9 X.B.uXsXsXfXiXD.C 0 ~ 4Xy.` ; O X X . . O X # ",
"+ + + 1 @ + @ 1 6 1 4 1 1 1 1 1 1 1 + + $ + . $ $ % U m.B.7.i.hXdXdXfXpXJ.r.8.] D.d O o @ X . $ $ $ ",
". + + @ @ 1 1 @ 1 1 3 1 1 1 + + 9 @ + + @ + + $ $ B 5.B.K.u.6.7.*XdXsXaXlXzXyXkXJ.f       .   . X # ",
"+ . 1 + 1 + 1 3 3 3 5 5 1 + + + @ @ + 2 + . + . 3 | i.=XjXu.} } 5.i.uXgXzXxXzXpXd = o       . . . . ",
". + + 1 1 1 1 1 1 1 1 1 1 5 @ + @ @ + @ + + + $ V y.B.7XJ.3.} 6.5.q.u.i.<X:XH.` = o o     . .   . . ",
"+ . @ + + 5 3 1 3 1 1 1 1 1 1 @ @ @ + + + . $ 9 3.N.>X6Xq.2.2.5.q.u.u.B.M.o.0 -   o           .   . ",
". @ + + 1 1 1 1 + 1 1 1 5 1 1 3 @ + + + 2 $ $ U y.<X6XL.2.2.3.q.e.u.u.M.C.M = O         .         . ",
"@ $ @ + 1 3 1 1 1 1 5 1 5 1 1 3 1 + + + $ $ r 4.%X7X6X0.| 2.q.q.e.u.B.j.) 8 o     o     .   . X . X ",
"X @ 6 3 1 1 3 1 5 1 5 5 4 1 3 4 5 1 + + $ 8 ^ m.2XkXL.....0.0.e.H.K.%XO.i = o   o       . X X X . O ",
"@ @ 1 1 1 1 5 5 1 3 5 4 7 5 7 1 1 1 + 1 % M t.;X6X7X#.....w.w.F.=X&X~._ o   o   X   O X . . . + $ $ ",
"@ 6 @ 1 1 1 1 5 5 4 3 5 1 5 1 1 1 5 1 + 8 | N.;X0XG.#...w.w.G.:X&X$XV.=   o     .     X $ . + + $ $ ",
"+ 3 + 1 1 5 5 1 1 1 1 3 5 1 1 1 3 1 6 $ H t.4X9X6X-.;.<.G.%X;X2X:XA.N O   X O O   . X . + . + + @ @ ",
"1 1 1 5 1 1 5 4 5 1 1 3 5 5 1 1 1 w 8 8 3.K.kX8X-XW.E.%X!.1XeX2X$Xo.8 = X   O O X X @ + + @ @ 1 1 2 ",
"5 5 5 1 5 1 1 1 4 1 1 3 5 5 3 5 1 @ 3 J >.:XtX(.P.I.Q.^./.(.1X4XA.i - O .     o X . + + + 1 1 1 @ 2 ",
"1 1 1 3 1 3 1 1 1 5 5 5 5 1 3 5 3 3 p X.E.eX9XT.P.P.!.^.(.qX2XT.) $ O O $ . X . X . . + 1 + @ + 1 1 ",
"1 1 5 1 1 1 1 5 5 1 1 1 3 1 5 5 1 3 ^ :.U.1X-XT.~.T./.-X5X2XE.V.a # . # . $ 8 . . + @ + 1 1 + 1 + + ",
"+ 3 3 1 1 + 1 1 @ 3 3 1 3 4 7 7 q S $.I._.).s.s.a.Q.T.^.^.I.C._ & $ . X . # 3 + $ @ + 1 + + 1 + + + ",
"@ 6 1 X + + @ + + 6 1 7 q q w r p | h._._.I.s.s.I.E.U.OX_.Z.o.u $ @ . $ . + . + @ + + 1 + 1 + @ + + ",
"X @ $ @ 1 + + @ 3 7 9 q w t m M U >.U.#X_.s.s.P.I.R.Q.oXP.C.N # $ + + + + + + @ 3 + + + + + . + + . ",
". . . @ $ + X 1 7 9 q t V M S P X.a.1XwXz.s.d.U.R.Q.OXU.Z.) y # $ + . # @ + $ 2 2 @ 1 @ + X . . @ . ",
"$   . X . . % 6 q r t V S F G ..>.XX8X/.p.s.I.R.Q.OX`.I.C.i # o . . + $ + + @ # 3 $ + + + . . . .   ",
"o X     . + 3 7 r B C S P W ^ -.R.wXwXf.p.f.R.Q.^.OXI.%.E & $ o $ . + @ + 1 3 3 $ 3 + + . O .       ",
"    . . . @ 4 q t C F J Q ~ 4.:.#XtX/.f.f.R.Q.Q.OX_.P.%.u $ O o X . . $ @ 1 2 8 @ $ $ . @ O . . . . ",
"      . . 2 8 e M F P Q / ..t.].rXrXI.z.k.'.Q.+XOX).%.E 8 $ X . X . . + + 1 1 + 1 + $ X . X .   O . ",
"  o * X $ 3 q t C K Q / ..t.h.#X8X}.z.z.].'.}.OX].a.O.t 9 @ X . . . . + + + @ + + + + @ X O .   X   ",
"    O . $ 3 e M F J ! / 0.>.].rX1Xz.z.k.'.XX+X'.f.Z.R M 9 3 . . . . + + + 1 @ @ @ @ + . . .       . ",
"        $ 9 r M F W ~ ..-.E.@XqX].v.v.[.|.}.}.].a.o.C t 9 3 X . . . + + @ 2 @ 2 + + + . . . . .     ",
"O o   X % 9 t M F P / 0.>.}.@XXXc.z.v.Q.}.}.].f.C.! C M e 3 @ X + @ + $ $ + + @ + + + . + . . X o   ",
"X o o   $ 9 p M G Q ..-.W.@X@X].c.k.{.{.+X|.v.*.@.J S M w 6 . . @ . $ + $ + . . . . + . . . . + . o ",
"X X   . @ 7 r C G W 3.j.@X#X@Xv.v.b.{. X X[.a.C.~ K S t 9 9 X . . + @ + + $ + . + + . . . . . . $ . ",
"  .   . @ 9 r M F I $.[.#X#X.Xv.x.n.[.,X Xc.Z.#.W G C M 9 9 + . . . + . . $ $ . . . . + @ . . + $ . ",
". X X X 3 6 w m S J +.T.#X@X.Xn.n.n.{. X[.a.C./ W F C t 9 6 . @ + + $ # . . . . . . . . . . . $ + . ",
". X @ X @ 6 w t C K 3.Y.#X X.Xb.b.{. X|.l.Z.#.Q K S M r 7 2 X . . . + . . # . .     . . . . . X $ O ",
". + $ @ @ 6 q w B S Q ,.!.{.|.{..X@XXXb.*.@.! P F C t w 6 @ @ + @ + # + + . . . . X $ . . . . . $ $ ",
"+ X @ . + $ 7 q t V F  .,.b. X,X3X3X{.h.&./ P H C M r 7 1 + + . + @ + . . + . . . . + . . . . . @ @ ",
"+ @ X @ + 3 3 7 r t C F #.*.:.W.{.Y.:.&./ J K V B p w 3 + + + $ $ + + . + + . + + . . . $ + . . . @ ",
"$ 3 + @ + @ 1 6 q w B V C I 1.{ { { 1.P K F V B r 9 8 $ . . @ $ 2 + $ + @ @ @ + + + @ . . . @ $ $ . ",
"+ . + + @ 3 1 1 7 r w t m V V S G G F C C M p p 9 8 $ + . . . + @ @ @ @ + @ @ $ + + + + . $ $ 8 + . ",
"+ @ 1 1 1 1 @ 5 3 7 w q t t m m M M M M t r q 9 7 3 . . . . . . @ @ @ 1 1 + 1 3 @ + + . . $ + . + + ",
"+ + + 1 1 1 1 5 6 @ 3 4 7 q q w t w q q q 7 3 3 1 @ . . . . . + + + 1 + 5 + 1 + + + + + O + . @ 1 + ",
"+ 1 1 1 1 1 1 1 1 1 3 5 3 7 3 q 7 4 7 7 4 2 X @ X X . $ X + @ + + + + + 1 1 1 + + + @ + X + . + + + "
};
