/* XPM */
static char *exit[] = {
/* columns rows colors chars-per-pixel */
"50 50 216 2 ",
"   c #3D362F",
".  c #53210D",
"X  c #662508",
"o  c #792B0A",
"O  c #7B3607",
"+  c #7D3B0A",
"@  c #773409",
"#  c #6A291B",
"$  c #722518",
"%  c #6D3714",
"&  c #7B3A11",
"*  c #4A3328",
"=  c #643C24",
"-  c #662E21",
";  c #7D420D",
":  c #7A4419",
">  c #56493B",
",  c #4E463B",
"<  c #7A4327",
"1  c #784934",
"2  c #79573E",
"3  c #7D522F",
"4  c #5B564E",
"5  c #5C5953",
"6  c #4B4842",
"7  c #665A4C",
"8  c #7B5844",
"9  c #645C52",
"0  c #75614B",
"q  c #6C6359",
"w  c #67635A",
"e  c #796B57",
"r  c #7F715F",
"t  c #6A6964",
"y  c #736C63",
"u  c #756F6A",
"i  c #76726B",
"p  c #7A736A",
"a  c #7A7366",
"s  c #797773",
"d  c #7D7974",
"f  c #7C7E7A",
"g  c #891E0A",
"h  c #92260A",
"j  c #8B3D0A",
"k  c #873A08",
"l  c #9F3408",
"z  c #943B08",
"x  c #883B17",
"c  c #8A210A",
"v  c #A23D0A",
"b  c #8B3B27",
"n  c #8B420B",
"m  c #86440D",
"M  c #92420A",
"N  c #9A440A",
"B  c #9A4D0D",
"V  c #894815",
"C  c #944B13",
"Z  c #984917",
"A  c #9B541B",
"S  c #96531A",
"D  c #99510F",
"F  c #A34408",
"G  c #A44D0F",
"H  c #A54614",
"J  c #A65113",
"K  c #894822",
"L  c #984928",
"P  c #885224",
"I  c #995627",
"U  c #845438",
"Y  c #995835",
"T  c #804D33",
"R  c #A95728",
"E  c #B05827",
"W  c #98623B",
"Q  c #8D6139",
"!  c #A76135",
"~  c #B4652C",
"^  c #865B45",
"/  c #955D45",
"(  c #89654A",
")  c #956649",
"_  c #846957",
"`  c #977557",
"'  c #987051",
"]  c #A46B42",
"[  c #B2784C",
"{  c #AB7A50",
"}  c #A57D5D",
"|  c #B77E58",
" . c #AD764B",
".. c #837465",
"X. c #8C7C65",
"o. c #83796D",
"O. c #977763",
"+. c #837C75",
"@. c #827F79",
"#. c #99876A",
"$. c #858277",
"%. c #86837B",
"&. c #8B867C",
"*. c #8B8678",
"=. c #928471",
"-. c #938B7C",
";. c #9A8D7D",
":. c #948975",
">. c #9C917C",
",. c #9E9270",
"<. c #A88567",
"1. c #B68766",
"2. c #A78B72",
"3. c #A4937E",
"4. c #AB9178",
"5. c #B3937A",
"6. c #C69775",
"7. c #8A8781",
"8. c #8C8983",
"9. c #8D8C8B",
"0. c #858681",
"q. c #938D84",
"w. c #9B8E81",
"e. c #928E89",
"r. c #9B9384",
"t. c #94928C",
"y. c #9B958A",
"u. c #9D9A8C",
"i. c #999386",
"p. c #8D8E93",
"a. c #8F9095",
"s. c #939395",
"d. c #999793",
"f. c #9C9A95",
"g. c #95959A",
"h. c #98979B",
"j. c #97989C",
"k. c #9B9B9C",
"l. c #A29683",
"z. c #A49985",
"x. c #AB9B85",
"c. c #A0978C",
"v. c #A29A8C",
"b. c #AB9D8C",
"n. c #B29782",
"m. c #A29D94",
"M. c #A19E9C",
"N. c #9CA39B",
"B. c #9FA097",
"V. c #A9A18D",
"C. c #A4A195",
"Z. c #ACA394",
"A. c #A4A29D",
"S. c #A9A49D",
"D. c #A9A89E",
"F. c #B4A392",
"G. c #B2A69A",
"H. c #B4AA9C",
"J. c #B9A797",
"K. c #B1A08F",
"L. c #9E9EA1",
"P. c #A09FA1",
"I. c #9FA0A3",
"U. c #A4A3A3",
"Y. c #A9A7A4",
"T. c #A6A9A4",
"R. c #ABA9A5",
"E. c #A6A6A8",
"W. c #A8A7A8",
"Q. c #ACACAA",
"!. c #A7ABA9",
"~. c #B2ACA5",
"^. c #B1AEAA",
"/. c #B9ADA0",
"(. c #AEB1AC",
"). c #B2B1AD",
"_. c #BBB3AD",
"`. c #B9B0A6",
"'. c #AEAEB0",
"]. c #B0AFB1",
"[. c #ACB4B2",
"{. c #B4B4B2",
"}. c #B8B6B3",
"|. c #B5B9B5",
" X c #BAB9B6",
".X c #B6B6B8",
"XX c #B4BDBA",
"oX c #BCBCBB",
"OX c #B8B7B9",
"+X c #CA9F83",
"@X c #C0A99B",
"#X c #C4B5A9",
"$X c #C1BAB3",
"%X c #C1BFBC",
"&X c #CCBDB4",
"*X c #B7C1BD",
"=X c #C9C1BB",
"-X c #BEBEC0",
";X c #B9CBC5",
":X c #B8D1CC",
">X c #C4C5C4",
",X c #C5C8C6",
"<X c #CBCCCB",
"1X c #C8C7C6",
"2X c #D1CAC7",
"3X c #CFCED1",
"4X c #D1CED3",
"5X c #D3D3D4",
"6X c #D7D7D8",
"7X c #DBDADB",
"8X c #D8D7D8",
"9X c #CCD0CF",
"0X c #DFDFE0",
"qX c #E2E2E3",
"wX c #E9E9EA",
"eX c #E7E7E8",
/* pixels */
"5X1X3X0XqXwXwXwXeX0X0X0X;X{.4X1X1X4X6X0XqX7X5X<X<X5X4X>X<X3X7XeXeXwXwXeXqX0XqX<X'.4X1X>X<X8XqXeX7X5X",
",XoXL.E.!.'.!.'.'.!.'.'.P.P.W.W.W..X].'.'.Q.Q.Q.^.].^.A.A.XX{.{.{..X].'.'.'.].P.P.Q.'.Q.Q.{.{.oX>XQ.",
"1X].p.p.p.g.L.a.L.L.L.j.L.a.L.L.U.W.U.L.f.j.U.U.U.Q.Y.d.9.Q.Y.P.P.U.L.h.h.k.j.g.j.k.P.U.U.U.U.R.oX{.",
"<X'.p.p.a.a.g.L.g.L.f.f.L.L.L.h.E.^.^.W.A.A.U.R.Q.Q.Y.@.%.d.M.Y.U.E.P.k.L.L.P.k.h.L.P.L.L.M.U.P.oX4X",
"<XE.p.g.a.a.L.L.g.g.f.j.j.L.h.j.k.Y.R.~.M.Y.U.Y.Y.U.%.p e.7.h.U.P.U.L.j.L.P.P.j.j.k.P.P.M.L.M.L.oX7X",
"4X-Xa.a.L.g.g.g.L.j.L.P.L.d.d.d.h.Y.~.Y.M.M.Y.R.m.i s.!.P.d.s.j.L.L.k.j.j.P.U.L.L.P.U.P.P.P.U.P.oX6X",
"0X-Xp.a.a.a.a.L.L.j.L.U.I.f.f.j.M.W.^.R.m.S.Y.f.%.T.|.U.j.s.9.s.k.j.g.j.k.M.U.E.P.U.U.U.P.A.P.U.{.,X",
"0X-Xp.L.g.a.L.g.j.L.k.U.U.k.k.k.P.Y.W.M.M.m.%.8.T.T.P.j.h.g.a.g.g.g.g.g.h.h.L.U.W.U.P.P.U.W.W.U.^.;X",
"0X'.a.L.g.L.a.L.L.L.L.L.Q.U.U.U.T.R.R.A.D.8.s !.A.N.g.g.g.g.s.g.a.L.L.L.g.j.M.E.W.W.E.E.R.R.R.U.].OX",
"4X-Xg.a.L.L.L.L.L.L.L.L.R.U.U.T.U.D.A.m.u.d %.N.e.f.d.g.s.s.s.g.L.a.a.L.L.L.P.P.U.E.U.U.T.R.U.A.}.-X",
"0X-Xa.g.h.L.L.L.L.L.L.L.U.U.U.U.R.R.T.U.T.8.&.*X[.f.k.g.g.j.g.j.L.L.L.E.E.E.E.E.W.E.Q.E.Q.Q.Y.U.oX3X",
"0X-Xa.g.a.L.g.L.L.L.L.E.U.U.A.Y.T.!.Q.R.D.%.$.:XXXk.f.f.g.j.j.L.L.L.L.L.P.E.L.P.U.E.E.Q.(.Q.!.U.}.<X",
"3X'.a.g.j.L.g.L.L.E.P.E.L.L.k.U.Y.Q.^.R.Y.&.$.;XXXM.k.k.k.L.L.j.L.I.L.L.I.E.I.E.I.E.U.Q.].{.Q.Y.^.oX",
",X'.g.g.j.L.L.L.L.L.L.E.U.P.P.U.E.Y.R.Q.~.e.8.;X*XU.M.P.L.j.L.P.L.L.L.E.L.E.L.L.L.L.W.Q.^.].Q.Q.^.}.",
"0X.Xp.g.h.g.L.L.L.L.!.E.Q.U.U.U.!.Q.!.R.R.q.q.;X(.U.E.P.P.P.P.P.L.L.L.L.L.I.I.I.L.L.I.Q.'.^.^.^.oX<X",
"4X-Xp.g.L.L.L.L.L.L.L.'.^.Q.Y.Y.Q.R.R.R.S.q.9.{.Y.U.U.P.P.P.P.P.L.L.L.L.L.L.L.L.L.I.I.I.W.Q.Q.R.}.<X",
"8XOXa.g.j.L.L.L.U.I.U.!.^.^.^.R.R.R.Y.R.Q.m.@.{.XXU.U.I.T.U.U.U.P.P.P.P.E.E.P.I.L.L.L.L.P.W.Q.Q.oX5X",
"5X].s.s.j.L.L.U.E.R.Q.{.Q.W.Y.R.S.U.R.W.).].d.0.T.*X!.U.T.R.T.R.Y.U.P.U.P.E.E.E.L.L.L.L.U.P.E.W.%X8X",
"<XU.s.g.j.P.U.P.U.Q.).).Q.!.R.R.Y.Y.Y.R.Q.^.^.c.@.N.|.(.Y.Y.^.Q.R.U.P.P.L.L.P.P.L.L.L.L.P.k.P.P.%X5X",
"oXj.s.h.j.k.k.k.U.Q.{.!.U.U.U.R.~.R.Y.R.^.^.^.S.m.i &.R.R.R.~.R.^.U.P.M.L.P.E.P.L.L.L.E.P.k.M.U.%X<X",
"oXj.h.j.P.U.M.j.L.U.Q.R.M.P.P.~.~.W.W.^.^.^.R.m.D.-.a i U.R.R.Y.^.!.U.P.U.U.U.U.L.L.L.U.U.U.W.^.}.].",
"oXP.h.M.U.U.A.U.U.E.{.T.P.M.P.Y.~.W.U.W.^.W.P.c.u.-.u.-.e.R.R.~.^.R.Y.U.R.!.E.U.g.L.L.U.U.U.U.U.Y.Q.",
"1XQ.M.U.W.R.!.!.T.T.{.R.P.P.P.Y.U.E.P.P.^.M.f.7.-.-.i.N.8.~.~.~.~.Q.Y.Y.!.Q.R.A.L.j.P.P.P.P.M.M.{.<X",
"1X].k.M.R.Y.Y.U.U.k.k.k.k.k.P.P.P.M.L.P.Y.M.y.-.>.r.R.T.e.).).~.R.U.A.Y.R.R.T.D.L.j.P.U.U.Y.S.U.oX8X",
"<X{.k.U.R.R.R.R.P.M.k.k.k.P.P.P.k.L.f.A.k.m.q.-.u.u.B.N.q.(.~.T.Y.S.Y.Y.Y.R.T.T.R.R.T.T.R.U.D.A.-XqX",
"7XoXU.Q.^.).Q.Y.P.L.L.L.L.P.U.P.U.P.U.Y.S.M.i.i.u.>.i.t.t.(.~.~.^.^.^.^.{.).(.).).).(.(.Y.Y.R.A.oX7X",
"7XoX!.^.^.Q.R.T.U.P.P.P.P.P.W.R.Y.U.U.U.D.f.y.;.r.>.z.B.B._.(.(.^.{.}.^.}.}.).~.(.).}._.).~.^.R.oX7X",
">XQ.k.Q.).R.Y.Q.^.^.W.U.k.L.P.Y.Y.U.U.U.A.A.y.>.r.r.-.*.t.).|.)._.^.{.^.|.).).R.).Q.).).R.R.Y.Y.oX<X",
"1X{.f.U.Q.Y.Y.Q.^.^.^.Y.M.L.f.Y.R.S.S.R.A.A.Z.v.i.z.:.w t.).{.).~.^.W.^.Q.Q.^.R.R.).R.R.Y.M.k.M.}.{.",
">XoXk.R.Q.Y.Y.~.^.^.^.R.P.k.M.S.S.S.A.S.m.v.u.v.u.u.$.d T.(.^.D.R.R.^.U.W.^.~.R.R.R.R.R.Y.U.A.A.oX^.",
"4X{.A.U.R.U.R.R.^.^.!.A.f.f.f.m.m.m.S.m.v.u.u.r.z.a i.R.Q.~.Y.S.M.A.^.W.^.^.R.R.Y.!.Q.R.U.A.A.U.%X3X",
"<X{.A.Y.Y.f.A.Y.R.Y.Y.D.A.m.m.m.m.m.m.m.i.u.-.*.y q.R.).Y.Y.D.m.M.U.E.W.Q.'.Q.W.Y.Q.Q.!.U.S.A.M.%X6X",
"3X XA.A.A.f.f.A.A.k.k.A.T.A.k.C.m.m.m.m.c.w.e u u.(.R.A.A.S.M.C.U.M.f.P.R.U.U.U.W.E.U.U.U.R.R.S.%X8X",
"qX>XR.T.U.f.k.D.N.t.f.k.C.D.S.Y.S.m.v.c.i.+.u }. XA.C.C.S.M.k.m.A.N.f.U.W.Y.M.k.U.W.W.W.E.Q.R.S. X1X",
"qX>XR.R.Q.U.U.Y.f.e.t.d.f.M.Y.Y.S.m.u.q.&.p e. XT.y.i.i.C.D.m.A.R.Q.W.Y.R.W.M.k.M.U.Q.Q.!.Y.R.R.}.>X",
"0X=XA.D.R.Y.R.S.d.i.d.f.f.d.A.R.Y.m.f.e.i.+.q.;X!.i.i.i.y.m.A.S.R.).Y.U.Y.Y.m.M.P.U.Q.!.R.Y.W.R.}.}.",
"6X`.i.f.A.S.A.m.e.e.f.f.j.e.f.M.m.t.9.9.&.d %.:X;Xq.d.e.-.w.M.m.D.R.R.Y.R.U.P.P.U.R.W.P.Y.Y.R.R.oXoX",
"qXD.o.e.y.t.q.$.@.7.d.k.d.%.*.w.8.d f f s t f :X[.t.s.9.f.7.+.q.y.U.U.M.M.D.~.Y.Y.Y.P.k.M.Y.R.S.%X3X",
"0Xm.7 9 p y 9 y 9 t o.f f u 9 9 9 4 4 5 5 w u *XN.e.d 4 s y 9 p d 9.t.s @.8.d.q.e.m.M.k.m.M.Y.m.{.<X",
"5X>.< # K = * >   6 q y y - $ $ # * , 4 i u 9 m.-.) ) 1 * # O.c.&.-.+..._ / / ^ ^ O./.M.d.{.^.b.y.-X",
"1X1.l v N & * , e r X.^ $ g g o n 3 ( ..Z.&.q.2 x R Y K b ` G.M.y.b.O.b L E R R L n._.$X$X$Xn.L } {.",
"8X6.v H R ` a :.l.>.' x h h z v W ` X.X.3.*...Y L R L S } b.J.S.W.n.L h v R ~ [ J.`.~./.~.4.Y Z 1.<X",
"8X6.H | =X_.3.z.3.0 + k z M A 1.H.,.=.#.l.` U _ <.E ! 5.F.Z.V.`.n.R l v v J | #X$X~./.~.2.I J Z <.<X",
"7X6.1.2X5XA.S.x.) @ : ; m I 1.$XZ.,.#.#.I S I I T ' F.$XJ.K.z.1.H v l F G  .J.`./._.J.{ A C M Z 5.<X",
"8X#XG.3X-Xy +.' V ; : : P <.x.`.-.u.#.S n M D R 1.a *.=XH.V.' S N F F B  .J.F.G.Z.K.' C N n n Y @X7X",
"2X;X{.4X4Xw.2 x m m ; P #.V.>.G.~.4.S n @ m D  .@X=Xu.d F.( k k M G Z ` b.K.l.l.2.I z O m C T X.`.6X",
"%X-X4X4X2X} < @ @ + P ` 3.3.=.l.5.S n O X % Q x.A.Z. X-.^ j O O M C ` Z.b.v.=.#.S k j n m T 0 0 G.4X",
"OXoX4X&X1.W % X X V #.,.,.#.e 2 V O @ @ . = e e X.*.3.( K z o o V #.#.3.;.=.2 : o @ M V P e 7 > m.{.",
"oXoX2X+X6.1./ 1 ^ 2.b.x.>.=.` 8 U 2 U U 0 e a p &.b.<.) ( ! ^ ( <.l.;.i.r.=.2 1 T Y ) ' =.+.u q e.^.",
">X%X8XqXeX7X<X3X4X8X5X<X)..X6X,X5X6X8X3X=XoX,X6X7XqX7X*X*X6XqXeXqX<X<X3X5X5X3X}.^.4X1X3X5X8X3X>XoX1X"
};
