/* XPM */
static char *floor[] = {
/* columns rows colors chars-per-pixel */
"50 50 172 2 ",
"   c #02010C",
".  c #02010D",
"X  c #02020D",
"o  c #03020D",
"O  c #03030D",
"+  c #02010E",
"@  c #02010F",
"#  c #02020E",
"$  c #03020E",
"%  c #03030E",
"&  c #03020F",
"*  c #03030F",
"=  c #04030E",
"-  c #04030F",
";  c #05030F",
":  c #03040F",
">  c #04040E",
",  c #04040F",
"<  c #05040F",
"1  c #020110",
"2  c #030210",
"3  c #030310",
"4  c #030211",
"5  c #030311",
"6  c #030212",
"7  c #030312",
"8  c #030213",
"9  c #040310",
"0  c #040311",
"q  c #040312",
"w  c #040313",
"e  c #030410",
"r  c #030411",
"t  c #030412",
"y  c #040410",
"u  c #050410",
"i  c #040510",
"p  c #050510",
"a  c #050411",
"s  c #040511",
"d  c #060510",
"f  c #060511",
"g  c #050611",
"h  c #070611",
"j  c #070711",
"k  c #040412",
"l  c #050412",
"z  c #050512",
"x  c #040413",
"c  c #050413",
"v  c #060512",
"b  c #060513",
"n  c #040612",
"m  c #070612",
"M  c #070712",
"N  c #060713",
"B  c #030214",
"V  c #030314",
"C  c #030215",
"Z  c #030315",
"A  c #030216",
"S  c #030217",
"D  c #040314",
"F  c #040315",
"G  c #040316",
"H  c #040317",
"J  c #040414",
"K  c #050414",
"L  c #050514",
"P  c #050415",
"I  c #040515",
"U  c #060514",
"Y  c #060515",
"T  c #070615",
"R  c #050416",
"E  c #050417",
"W  c #060517",
"Q  c #050617",
"!  c #070617",
"~  c #080513",
"^  c #080614",
"/  c #080912",
"(  c #0C0D15",
")  c #030218",
"_  c #030219",
"`  c #03021A",
"'  c #03021B",
"]  c #040318",
"[  c #040319",
"{  c #050319",
"}  c #04031A",
"|  c #04031B",
" . c #050418",
".. c #050419",
"X. c #060518",
"o. c #060519",
"O. c #070619",
"+. c #05041A",
"@. c #05041B",
"#. c #06051A",
"$. c #06051B",
"%. c #07061A",
"&. c #07061B",
"*. c #03021C",
"=. c #03031C",
"-. c #03021D",
";. c #03031D",
":. c #03021E",
">. c #04031C",
",. c #04031D",
"<. c #04031E",
"1. c #04031F",
"2. c #04041C",
"3. c #05041C",
"4. c #05041D",
"5. c #06051C",
"6. c #06051D",
"7. c #07061D",
"8. c #04041E",
"9. c #05041E",
"0. c #04041F",
"q. c #05041F",
"w. c #06051E",
"e. c #06051F",
"r. c #07061E",
"t. c #07061F",
"y. c #090519",
"u. c #080619",
"i. c #080719",
"p. c #09071A",
"a. c #08071C",
"s. c #08071D",
"d. c #0D0B18",
"f. c #0A0A1D",
"g. c #09081F",
"h. c #0C0A1F",
"j. c #0F0D1E",
"k. c #13121C",
"l. c #040320",
"z. c #040321",
"x. c #040420",
"c. c #050420",
"v. c #050520",
"b. c #040421",
"n. c #050421",
"m. c #050521",
"M. c #060520",
"N. c #070621",
"B. c #070721",
"V. c #040422",
"C. c #050422",
"Z. c #050522",
"A. c #050523",
"S. c #060523",
"D. c #060622",
"F. c #060623",
"G. c #070623",
"H. c #060624",
"J. c #070624",
"K. c #070724",
"L. c #080725",
"P. c #090820",
"I. c #090821",
"U. c #0E0D23",
"Y. c #0E0E23",
"T. c #0C0B27",
"R. c #0D0C26",
"E. c #0E0D26",
"W. c #0A0A28",
"Q. c #0C0C28",
"!. c #0F112B",
"~. c #10102B",
/* pixels */
"*.1.F.z.z.l.~.m.L.n.l.:.1.-.' [ +.G B B 4 @ 8 B U B Y E J H A _ _ ' ' 1.1.C.-.-.' A ) B B S S A ' ' ",
"*.1.A.z.z.m.Q.S.J.D.z.z.z.l.<.' ] ] C E B 8 G V 4 [ F E _ H ` ) ' ' -.x.M.1.<.*._  .C S B K { o.' ' ",
"<.*.l.;.<.<.<.z.C.z.z.C.K.z.z.' ' 6.} S A A f.&.A ) C ) | | _ ' ,.*.' ' ' ' -._ ` C B B B B A B ) @.",
"` ' -.*.' ' =.c.l.z.V.z.S.C.C.l.z.B.>.' ) ) P.h.A ) _ ' =.,.,.' *.` ' ' ' ` _ _ ) _ A B B B B A A ) ",
"S ) ' ' ' ' ' *.:.z.C.A.A.A.z.v.C.<.M.<.' @.' | ' _ ' 9.>.9.,.*.' ) _ S +. ._ Y.) A A B 4 K D B A ) ",
") ) E &.S ` ` ' ,.*.z.z.z.z.z.A.z.C.l.m.9.' ' ' *.' *.<.| @.3.) )  .H A C B B S A C ) C B 4 C  .C A ",
"B C _ } ` A [ _ ,.*.z.z.Z.Z.z.z.z.l.l.l.-.:.-.' *.' ' >.' $.A S B G C F F 8 B B 8 B C B B E S C  .C ",
") C ] S A @.$._ 1.q.z.z.n.1.z.z.z.z.S.D.-.' ' ' ' 9.' } _ ..E B B 6 B 2 t + 6 c 6 B D C C H G A ) ) ",
"[ } ) S _ U._ ) *.,.D.C.z.<.!.1.z.S.V.<.:.*.' S ` $.` S C G B B B u # 6 b @ @ 0 q 4 6 8 8 B B B ) S ",
") ) _ S _ >.` 9.M.v.l.z.z.l.l.G.l.<.:.*.*.) _ C ..] C B B 8 0 9 @ 1 +   +     w - 4 B b 6 B C E S  .",
"_ ` ` | | *.*.<.m.1.S.z.z.0.1.-.q.' -.' 5.) C _ W B 6 E W 2 + c d.. . . . @ $   9 4 w # c D 6 B F %.",
"C _ ` >.,.<.1.;.q.l.n.l.1.b.*.' E.' ' ' 5.)  .F P B c 4 6 b # & ; . . . X   o - $   . + 1 2 6 6 V G ",
"S _ ;.' 1.-.z.F.V.z.C.l.z.<.*.' ' ' ' ' ) S ) C B 8 4 6 + + n 5 d 9 + - -       l - = . 2 + P 6 6 B ",
"C ) ' -.:.:.b.c.z.z.l.z.z.m.*.' ] ` ` _ _ _ ) P 8 6 4 6 & @ # @ X X   X   X +   . = - o . 4 & 8 8 B ",
"A C ' *.*.n.Z.l.l.l.l.z.z.1.l.,.3.` ` _ ` ) _ A 8 6 2 6 v + +             o # -   & @ $ @ 1 @ + @ 6 ",
"F ) ' ' 1.0.l.1.l.<.z.z.z.z.z.1.,._ ` ` 6.} ) S [ F V 5 4 v   X -   %   o j -   @     o $ 4 1 2 @ 6 ",
"A ..| ' 1.b.l.l.z.l.z.z.z.z.z.C.<.' _ _ | ` ` H  .E E 5 2 # w &     %   = M =     . 4 2 1 # # w D K ",
") ) e.4.l.z.z.z.C.A.C.V.C.z.Z.H.Z.<.' ' ' >.6.' _ )  .G @ 6   - u - - $ u   <   - % = 4 6 B B 6 B A ",
"} | >.<.1.z.A.l.V.C.z.Z.W.z.H.z.z.<.*.*.| | >.w.| ` S F B 1 q a $ X   u o - X   @ 4 u 7 4 C R C +. .",
"@.a.q.-.z.1.z.l.z.V.z.z.F.z.C.z.z.C.1.*.` ` ' ' ' w.) } C 6 Y # +           -   1 + 2 D &.C S )  .| ",
"' 1.-.z.z.C.V.z.z.1.A.J.z.l.l.C.V.z.c.' r.) ' ' ' ' ' _ A B ! 4 6 # + @ . @ ~ b . 8 D B A ' ` ' ' ' ",
"x.x.1.z.z.z.z.H.V.z.z.A.1.z.z.z.z.T.4.' ] ` _ ' ' q.' 4.+.B i.w l + # 2 2 X z x 8 S W S ` *.*.0.=.<.",
"1.0.C.1.z.z.Z.z.Z.z.z.z.z.V.C.C.l.l.' ' ) ) ) ' ' <.*.' | [ R P 6 2 7 q q 7 0 - B B A ' -.-.*.l.*.l.",
"l.z.z.z.z.C.V.V.V.z.V.z.z.l.l.<.<.-.t.r.S A _ ' ' ,.,.>.} ] B C B B B Q I 6 8 8 C C ) ` ,.:.:.-.1.l.",
"<.<.z.1.z.z.z.C.Z.l.x.1.z.<.1.*.*._ 3.S A C ) S S ' ' ,.} | S A A B B K 4 B j.B C ) _ ` ,.1.-.1.*.:.",
"' 9.w.x.<.1.:.n.=.,.v.*.' ' ' ' ' } ) S [ G B C ) +.' ` >.S } ] A C C ) A E p.) #.` @.' ' -.' ' ` ` ",
"3.7.@.,.=.' *.*.' e.` ` ) _ _ ) ..F B B F F B C B A S ` ] S C C ) A ) +.S S S ` } ` -.' ' ' ` ' S ) ",
"C ` ] ' @._ _ ' S E B S A F ] B B B & q 6 0 2 C 8 B B A C ) C _ G ` C ) _ ' ' 2.N.' ' ' ' ' A ] +.C ",
"B B 8 H  .B G F B K B C o.V 4 6 2 x X f . 4 o 5 4 4 W 6 6 4 A A O.A ) ` ' ` >.q.<.*.' ' S A B C C B ",
"Y 6 2 b 6 B R D F R 6 @ @ 2 @ & l +   = @ # o 0 4 4 4 6 b 8 6 8 B C ) _ ' *.' *.,.,.' S ) A B 6 6 6 ",
"0 0 2 l 4 + f + 6 &     < $ o $ o   :         < - + # 3 4 @ . 8 E C A 5.*.9.M.,.@.9.| C B R 6 w 6 + ",
"+ + 1 $ * + $ . # $     @ % *   :             u < - X + @ + . 1 B B C ..| @.,.R.' ' $.C C P 7 k & 4 ",
"+ .       + .   o $                                 i + @   2 2 6 B ) ' ' ;.<.*.*.) ] E E c 2 + b @ ",
"  & N 2 :       :                                   X   .   @ k 6 B C ) ' ' *.' ` _ B C B 8 1 r 7 + ",
"  @ s X                                         - - O /     2 @ 4 C ) ) ' -.<.*.' ' A S B 1 1 @ + + ",
"    $   -                                 o <               X 2 B ) S ' *.9.' ' ` +.E S S B 6 8 @ @ ",
"^ ; o O =       X                         o d               , K Y X.S | | ' ' +.} } S S S B 8 8 4 2 ",
"0 -             m                                           @ C G S &.[ @.) ) B A S _ A ) B B D 1 g ",
"& 6 % %         X                         O           X . 6 6 4 S A ] A A ..C S S C C V Z A A A F B ",
"6 6 < %                                   =         e 3 2 1 6 B C C S S C ..C B B B B C ) B B B G B ",
"B F @ 6 6 @ @                                         + 7 z D H A ) ] ..B B B G @ B 2 8 B B C E S A ",
"A H C 8 6 0 U 4 . .                                   . 8 D D V S ` ) A B B B F 8 4 4 8 B J B B o.H ",
"B B ] C R D V +   4 - X %   %   O ( O       k.h $     + 2 8 G ] ] C ` A A B B 6 B C G B B B B B E u.",
"S _ ..C F G B 4 6 . X p X f ,     >         d = o * U @ 4 6 A A ' } S S A S B B B B C J 4 6 8 B S { ",
"C _ A _ _ o.S B B 6 : %   X o                 f m $ T 0 6 B _ ..@.[ ' S ) ) C E S S B B p.G F A C F ",
"6.y.' ' ' ) ) H o.A R q 6 k - o X           $ $   @ @ 6 8 6 ..O.#.' ' ' ) [ ` ` S  . .) S C S ] y.S ",
"_ ) ` ' *.' ' | ) $.C B 6 8 3 u o h O   . . l N % 2 6 4 8 8 B S ] @.' ' >.9.' >.` } S A C } ..g._ S ",
"' ' <.1.1.8.' <.-.' s.H A C 8 3 ,   o $ @ -   y y L @ 2 B B C A ' ' 9.<.:.' :.I.` ) ] C ) X.] ) ) ' ",
"' *.;.l.1.z.1.0.;.*.,.` ) A E 8 8 4 + 1 . 4 @ 1 D & @ B B B A A ) ` *.-.l.;.l.-.` ` [ H ) A S ` ' ' ",
"*.l.1.l.V.l.l.1.x.8.l.*.' ` ) R 8 6 2 a + 4 @ @ - B K K K S [ G ` ' ' -.1.z.l.' ` ) [ H A S A ` ' ' "
};
