/* XPM */
static char *image[] = {
/* columns rows colors chars-per-pixel */
"50 50 49 1 ",
"  c #5A5A57",
". c #5D5D5C",
"X c #605F5D",
"o c #5F605F",
"O c #61615F",
"+ c #5E5F61",
"@ c #5F6062",
"# c #646464",
"$ c #676867",
"% c #696967",
"& c #666769",
"* c #676869",
"= c #6B6C6C",
"- c #706F6D",
"; c #6E706F",
": c #71716F",
"> c #6E6E71",
", c #6F7071",
"< c #737474",
"1 c #787775",
"2 c #767877",
"3 c #797977",
"4 c #757679",
"5 c #78777C",
"6 c #777879",
"7 c #7B7C7B",
"8 c #7E807F",
"9 c #81817E",
"0 c #7E7F81",
"q c #7F8081",
"w c #838383",
"e c #888785",
"r c #878886",
"t c #898986",
"y c #868688",
"u c #878889",
"i c #8B8C8B",
"p c #908F8C",
"a c #8F908D",
"s c #91918F",
"d c #8E8F91",
"f c #939392",
"g c #989795",
"h c #9A9996",
"j c #969799",
"k c #9A9A99",
"l c #9E9FA0",
"z c #A0A0A0",
"x c #AAA9A6",
/* pixels */
"7=5*>>>5<>*>5@*d%>=>>=<=<-<-&=<98 %99998998X888OX8",
">7<**y0>,=004,>qw=<==3<97<<3w919%99%9%9XX9888X8888",
"*+,>&@>0,,&,q>4#i4<=@<we5X>9eeX%999 X9998 8888898X",
",4><>>@*70>=><04 <w1%#*w1-##t3-# 998X999%8X8889988",
"&&,0&&>40&=*;6,<=78#<ey5O3s97O-799 %999 99x999998 ",
">00*&*>>**,=,==<-<==-79#:9t7 %:9X 8%9% 89999889% 8",
">04>>0d0<,78;,*2w=<><w87939e93:3X888989999998%9888",
"+404>&007,$,w7@@=w7i.>9we3:9tt:O9%8X 9998O999 X988",
"4*,,0&@,qq4>0q,>%=771#*9w:::s7=O%99%O8998O 888$888",
"4050>>>,q>>>fq>*<14O1w71%1739%3999X8899X%8%8888q8X",
"6qq>=,*44>@,4@>qw=#=7w7#1g::O13t%%8989 X888 .88q 8",
"*q<&*qq>>>qq4>>qd4771wi9=:1:7919X8888998O8$88$8888",
"$@8=@*5q>>@4q>4&*07w%=717=O19tOO888O 8888 898o.88X",
"8;=<>>@>04>>>>q0=%yw=.1:71=#7h13X8%%%X88%%8988$#88",
"6qq6@>>04@>,00@,440#-<7:#:143%9s%8%%888O%888+**q8 ",
"84<@>>>>@&>00@4,7<*=3:7#79--X%998 888%XO88% &88> 8",
"*04>4q,>>>05<ui9e7<-<7wi=1wi<=>w888$q888$88$**q84<",
"+*>>>&0q&>*0>>w>77<>%=17<%#067<.888o 8888 88q&&q4q",
">&<50*&<>45>>405*<11;==707=%7837@888;$888*.8qqqqj7",
">>44*>575>>655&<>>7%;378%6177*3q88$$8$;#$o@8*>>,,>",
"044&<=>6#>>43*><>>==73;;$22w<2qq8+888,@,8$8*88*8q,",
">04,674>>>,0<>6<9=<:=w1w;@8<8*;q;88$8888$8;8q*q>uu",
"0*>>w<75>,*<97%4>w=,#%e1%%*872;@8888 ;<=$ *88*+8qf",
"&04>lj&,50>*-e7<==70**:sw<;*287;@888q8q888$8>88=q6",
">>00>0&05&>=>7-<<<0*;<<7;<722;;;8q*8qdq$>>,4@0q0<*",
"000&&>>&>&<=<#=<,>**,<<*%87<*;838*;8<8>$<84**u00,4",
"&000>yd04>60><#4w5<,<w<4%<w3w3;i8;,;q8,*@i44,>q4,,",
">>0&>&007>&>w7##=u5<,#q,<2;2,;,*d8*;@88*<@,0q,@40,",
">00&0&&>00,><06=*=7w4**48e<*;73ad88*>>qq8*;<q>,>00",
"&&00&>&00,>>dy%%<<q<>,<538;;8;*2qq$8888*;*;8,@>,&*",
"000&&>>04>&>6&*dw<4&,,<>*3;,;;228@*88;4<<48q,0000>",
"+00>&00&>*004>=0d<,&>y40<,u,<;@78<,@8q>>*8q,>@,00>",
"&@00&&000@&>0&0@&0>>*&7yy>&37;;;3;,2@:;8<@4,00@>44",
"0&0@00&&000&>00>#&504>*0u05=;9<2;,8<*:8q>>,,,0>&q;",
"0@00&>>00&0>0>+@@&7>>4>0=wiw8=%72:@;821o,,<4@0>43#",
"+00 >00>+>0&0&>&4<>&*44>68w7.%37* ;22-o%qq**>qq*#:",
"@00yu0y05<150y>0i-<-<9887<999813%21:9:88:t8eq;q;93",
" 0&+0>00<,%<0&>+<00i.-8wi1-89t-O883O%99pO%tguoO8p8",
"0>&000+>507-=555#-083&=88-::h9-O%81-%%t8:OOe31%:88",
"@000&0&>5%55<w-0e<<@1931#1719O3988O8888O39-1;wet1O",
"1e7*<=----<=<=<<3<@<597#1h::O13t--1889o-89:oO999o3",
"#w4<<78-,><0<<<303333tiw-:3:3919-38:9931%8:81%p99:",
"#&4=e<55>>->95=O>07w*=7<7-O39tO%811%O891%o8ppOO83<",
"8=*>lh&<5w>%-i51#>tw>X<133-O9h:<-:3--O931-o88-%O39",
"187949&>0&>%-5=-359#=<5>%1111#ws:8O:333#<<;8O%:9<#",
"w77=>=>>*=<=>&%45<*>5-7&77-<##881O:98:O:83;O%<83#;",
"*w44>wd54><w<-&5t7<-17wi><9u<==9188%w<23-9<2:%8<w7",
";#7:==4y0>*-e5&X10<<*13-<=#937%=338:o8e8:o888%o8hi",
"3*$,8=&,5y,,4q3,%<497%=77=#%77>=;887<%8841,qq2,*87",
"%**q==>,0<>,aw*,=,7*77<7<%=17%<<83%1289;3w73;,3;;%"
};
