/* XPM */
static char *metal[] = {
/* columns rows colors chars-per-pixel */
"50 50 10 1 ",
"  c #797979",
". c #7A7A7A",
"X c #7B7B7B",
"o c #7C7C7C",
"O c gray49",
"+ c #7E7E7E",
"@ c #7F7F7F",
"# c #808080",
"$ c #818181",
"% c #828282",
/* pixels */
"@@@+++OOooXXXXXXooOoooooo++++++OOO++@++OooOOO+@@@@",
"@+oXXXooooooooO+OOOOO+++@%$#@++++@@@@@@@++OoOO+@##",
"#@@++++OOOoooOOO+@#$$$@@+OOOOooooO+@@@+OooXXoO+@$$",
"ooooOOoOOOO++++++OOOO+++OO+++++O+++@##$%%%%$@++Ooo",
"$$###@+OoXXXooOO+++OOOOOoOO+++OoXXXO+@@@+++OOo+@@#",
"@@@@@@+OOoXXoO+@@++OOO++@@@####@+OoO++@+++@+++OO++",
"@+++++@@#@@@@@@@#@@@@@@@+OooO+@##@@@@@+++++++@####",
"XXoooOooOOO+OOO++++@@@+++OOO+++++++@@++OOoooOooooX",
"@OoXooOO+O+++OOOoO+++++@@##@++OOOOOOOOOOOooO+#$$$$",
"OoooooO++++@++OOOOOOOoooO+@@@+++@@###@@+OooOOOOOOO",
"++++OoooooOOO+++++OOooooOOOoooooOOOooXXoooOOO+++++",
"XXXXXooO+++@@@@++OOoOOO+++@+++OOO++++@@@@+++OOoXXX",
"++@####@###@@+OOOOooooO++@@#$#@+ooooooooooXoO+@@@+",
"#$$$$#@+OooOO+++OoooooOOOOOO+@+@+OOoooO@@@@+OOO++@",
"OOoooOOooooOOOO++@@@@+o.    .XXoooooooooO+++@@@@++",
"ooOOOOOO++@@###$%%%$#@+OO+++@@@#@@@@@+++@@@@@@++Oo",
"++++OOO++++OOOoO++++++@@@@+OOoo.XXXoooO+@####@@+++",
"O+@@@@@@@@+@++@@@@##$$%$$$$$#@@+OOoOO+OOoXoooooOOo",
"#@+++++@@@@++OOOO+@###@+++++++OOOO++++@@@++++OO+@@",
"ooooOOOOOOOOOoOO+@@@@OX.   ..XooOOOO+@@+++OOoO++++",
"@++OO++OOOooXXXoOOOOoXX.XXoO+@@@@++OOO++++O++++++@",
"O+@@@@@@@@@@+OOO+@###@@++@#@@+++OOOOOoXooooooooooO",
"oOooooooOO+++++OOOOOoooooO+@@+++O+++OoOOOOoooooXXX",
"++O+++@@++OOOooO++@##@@@@@###@@@@@@+OooOO+@@@#@@@+",
"@@@+++OooOooOO+#$$#@+++++O+++++++++OOOOO++#$$%%%%#",
"++++++OOO++@++OoooOO+@@@@@@@++++OooXXXXXXoOOOooooo",
"%$#@+++@@@@@@@@@+OOOO+@##@+oXXXooooooooOO+OOOOO++@",
"OOOOooooO+@@@+OooXXoO+@#$#@@@+++OOOoooOOO+@#$$$@@+",
"O+++++O+++@##$%%%%$@++OooooooOOoOOOO++++++OOO++++O",
"OO+++OoXXXO+@@@+++OOO++@#$$###@+OoXXXooOO++OOOOOOo",
"@@####@+OoO++@+++++++OO++@+@@@@++OXXXoO+@@++OOO++@",
"OooO+@##@@@@+++++O++@####@+++++@@#@@@@@@##@@@@@@@+",
"OOO+++++++@@++OOoooOooooXXXoooOooOOOOOOO++++@@@+++",
"##@+++OOOOOOOOOOooO+@$$$$@OoXooOOO++++OOOoO+++++@@",
"+@@@+++@@###@@+OooOOOOOOOOoooooO+++@@+OOOOOOOOooOO",
"OOoooooOOOooXXoooOOO+++++++++OooooOOOO+++++OOooooO",
"+++++OOO++++@@@@+++OOoXXXXXXXXooO+++@@@@++OOOOOO++",
"@@#$#@+ooooooooooXoO++@@+++@@###@###@@+OOOOooooO++",
"OOO+@+++OOoooO@@@@+OOO++@#$$$$#@+OooOO++OOoooooOOO",
"   .XXooooooooOO+++@@#@++OOoooOoooOoOOOO++@@@@+o. ",
"+++@@@#@@@@@++++@@@@@@+OoooOOOOOO++@@###$%%%$#@+OO",
"@+OOoo..XXoooO+@##$#@@+++++++OOO++++OOOOO++++++@@@",
"$$##@@+OOoOO+OOoXoooooOOoO+@@@@@@@@@@++@@@@##$$%$$",
"+++++OOOO+++++@@++++OO+@@#@+++++@@@@++OOOO+@###@++",
"  ..XooOOOO+@+++++OoO++++oooooOOOOOOOOoOO+@@@+OX. ",
"XoO+@@@@++OO+++++OO+++++@@+OOO+++OOooXXXoOO+OoXXXX",
"@#@@+++OOOOOoXooooOoooooOO+@@@@@@@@@@@OOO+@###@@++",
"O+@@+++O+++OOOOOOooooooXXoOooooooO+++++++OOOOooooo",
"@#$#@@@@@@+OooOO+@@@##@@+++O++++@@+OOOooOO+@##@@@@",
"O+++++++++OOOOO++#$$%%%%#@@@+++OoooooOO+#$$#@+++++"
};
