/* XPM */
static char *result[] = {
/* columns rows colors chars-per-pixel */
"50 50 245 2 ",
"   c #000000",
".  c #01030B",
"X  c #0B0507",
"o  c #120100",
"O  c #011909",
"+  c #000313",
"@  c #00011B",
"#  c #030B14",
"$  c #0F1118",
"%  c #240300",
"&  c #2D0607",
"*  c #3B0403",
"=  c #360605",
"-  c #340F15",
";  c #0C240E",
":  c #353315",
">  c #000023",
",  c #010B24",
"<  c #021826",
"1  c #171B29",
"2  c #000035",
"3  c #031E31",
"4  c #121D30",
"5  c #251C2A",
"6  c #351A26",
"7  c #28072D",
"8  c #182627",
"9  c #052334",
"0  c #172739",
"q  c #2B2D26",
"w  c #252A26",
"e  c #2D3026",
"r  c #353426",
"t  c #383626",
"y  c #3C3A25",
"u  c #252B3C",
"i  c #262533",
"p  c #312C2F",
"a  c #4E0C04",
"s  c #470805",
"d  c #540E05",
"f  c #5A0F03",
"g  c #580204",
"h  c #4C120D",
"j  c #591103",
"k  c #551914",
"l  c #500D19",
"z  c #681604",
"x  c #741A02",
"c  c #66121B",
"v  c #4A3119",
"b  c #73240B",
"n  c #672317",
"m  c #742916",
"M  c #6F3711",
"N  c #461C28",
"B  c #562826",
"V  c #453C25",
"C  c #4F323A",
"Z  c #693626",
"A  c #73332F",
"S  c #574A18",
"D  c #564806",
"F  c #6C551D",
"G  c #6B571D",
"H  c #735D1E",
"J  c #7B5519",
"K  c #6D4E0E",
"L  c #7A631E",
"P  c #7B6402",
"I  c #4A4226",
"U  c #5A4C23",
"Y  c #554923",
"T  c #554732",
"R  c #685726",
"E  c #745E22",
"W  c #745D2A",
"Q  c #745539",
"!  c #786628",
"~  c #71632F",
"^  c #000058",
"/  c #000F4C",
"(  c #072F4C",
")  c #262E42",
"_  c #2C3548",
"`  c #36394C",
"'  c #353D51",
"]  c #273754",
"[  c #001065",
"{  c #01386C",
"}  c #503946",
"|  c #3A4359",
" . c #0F446B",
".. c #304C6E",
"X. c #13405B",
"o. c #594756",
"O. c #4F4F56",
"+. c #79564B",
"@. c #776350",
"#. c #454C63",
"$. c #495169",
"%. c #54556C",
"&. c #525B72",
"*. c #755067",
"=. c #5C6473",
"-. c #726C70",
";. c #841F00",
":. c #892101",
">. c #942400",
",. c #992600",
"<. c #9C3636",
"1. c #8E2E29",
"2. c #AC3F3D",
"3. c #855D1C",
"4. c #88691C",
"5. c #947819",
"6. c #8B710E",
"7. c #90582E",
"8. c #AB4B3B",
"9. c #836B2D",
"0. c #876C24",
"q. c #8B7323",
"w. c #8A752C",
"e. c #967A27",
"r. c #967B31",
"t. c #92692A",
"y. c #A4772A",
"u. c #9E2746",
"i. c #88574A",
"p. c #AD5352",
"a. c #977355",
"s. c #906B4C",
"d. c #A67B57",
"f. c #AB724F",
"g. c #916C70",
"h. c #B5676B",
"j. c #A47B70",
"k. c #815F6D",
"l. c #C5615C",
"z. c #CA7E52",
"x. c #C56462",
"c. c #9A850D",
"v. c #B39B0B",
"b. c #9B872C",
"n. c #9A8334",
"m. c #8E802E",
"M. c #A4842C",
"N. c #A98927",
"B. c #B69B2B",
"V. c #AB8B32",
"C. c #A38432",
"Z. c #BD9B35",
"A. c #B59535",
"S. c #AF9130",
"D. c #BBA336",
"F. c #BFA62C",
"G. c #BFA20C",
"H. c #C6AF0B",
"J. c #C29E36",
"K. c #C09C38",
"L. c #C68E33",
"P. c #C2A82E",
"I. c #D8BB2C",
"U. c #CCAC33",
"Y. c #C5A239",
"T. c #C7A736",
"R. c #CDB234",
"E. c #D6BC34",
"W. c #DABD35",
"Q. c #D8B838",
"!. c #CFB12F",
"~. c #E0BF36",
"^. c #DCC231",
"/. c #E4C72E",
"(. c #E2C635",
"). c #E6C839",
"_. c #EDD137",
"`. c #F3D639",
"'. c #EBD017",
"]. c #AD8F4F",
"[. c #BDA24D",
"{. c #B48B70",
"}. c #BDA961",
"|. c #D38C52",
" X c #D58E54",
".X c #C8A846",
"XX c #D1AE44",
"oX c #DABA44",
"OX c #D7B956",
"+X c #CCB051",
"@X c #C5936D",
"#X c #C59672",
"$X c #D1AC6F",
"%X c #E7A976",
"&X c #E8AA77",
"*X c #E0BF4D",
"=X c #DEC15D",
"-X c #E5CA48",
";X c #EED24B",
":X c #E7C853",
">X c #EFD456",
",X c #E8CD6A",
"<X c #F6DC64",
"1X c #F4DA79",
"2X c #EBD470",
"3X c #FDE368",
"4X c #FBE47A",
"5X c #DFC467",
"6X c #5F6D83",
"7X c #6C7388",
"8X c #73798C",
"9X c #677087",
"0X c #798194",
"qX c #B1958A",
"wX c #9CA4B6",
"eX c #ADABAB",
"rX c #98989E",
"tX c #C4948A",
"yX c #CCA79A",
"uX c #D2A49A",
"iX c #D3AE8D",
"pX c #E7AE81",
"aX c #EBB283",
"sX c #EBB68A",
"dX c #F3B989",
"fX c #F0BF93",
"gX c #D8B4A6",
"hX c #F5C496",
"jX c #F3D489",
"kX c #FFEA89",
"lX c #FEE884",
"zX c #FFE191",
"xX c #EAC5A8",
"cX c #FAD3AA",
"vX c #FFDAAD",
"bX c #FBD2A6",
"nX c #E9C9B4",
"mX c #FFDDB1",
"MX c #FFD7B5",
"NX c #F8CFA4",
"BX c #FFE1B2",
"VX c #B1B9C1",
"CX c #CFD1D3",
"ZX c #E3D5CB",
"AX c None",
/* pixels */
"AXAXAXAXAXAXAXAXAXAXAXAXAXAXAXAXAXAXAXAXAXAXAXAXAXAXAXAXAXAXAXAXAXAXAXAXAXAXAXAXAXAXAXAXAXAXAXAXAXAX",
"AXAXAXAXAXAXAXAXAXAXAXAXAXAXAXAXAXAXAXAXAXAXAXAXAXAXAXAXAXAXAXAXAXAXAXAXAXAXAXAXAXAXAXAXAXAXAXAXAXAX",
"AXAXAXAXAXAXAXAXAXAXAXAXAXAXL F y R M.Y.9.R Z.N.G r e.Y.e.U V S.Z.0.Y e r y AXAXAXAXAXAXAXAXAXAXAXAX",
"AXAXAXAXAXAXAXAXAXAXAXr U F I V F C.U.).T.V.Z.5.D v B.).T.e.R U.(.Z.! > w U ! V AXAXAXAXAXAXAXAXAXAX",
"AXAXAXAXAXAXAXAXAXAXAXw ! e.U R e.M.Y.(.~.oX=X$X}.r.B.R.A.r.M.(.).A.w.W I G L V w AXAXAXAXAXAXAXAXAX",
"AXAXAXAXAXAXAXAXAXAXAX8 r.J.0.e.Y.q.0.K./.;XkXkX4XXX5.E q ! J.).^.L V.Z.0.H H I e AXAXAXAXAXAXAXAXAX",
"AXAXAXAXAXAXAXAXAXAXt F ! e.V.R.).B.e.0.6.S.OXOXOX-X!.y.E R ~ e.e.G T.).Z.q.G R U r AXAXAXAXAXAXAXAX",
"AXAXAXAXAXAXAXAXAXV Y H q.b.V.U.).*X.XM.n.].+XR.!.(.-XU.0.Y R q.5.4.F.E.Z.M.0.4.R r AXAXAXAXAXAXAXAX",
"AXAXAXAXAXAXAXAXAXL E F F./.m.6.D.1X4X(.2XkXlX<X/.U.W.(.! R K.(./.Y.e.H H M.Z.0.U r AXAXAXAXAXAXAXAX",
"AXAXAXAXAXAXAXAXAXL H F U.`.5.].2X<X3X3XkXkXOX].b.9.A.Q.! b.).3X4X2X[.5.M.R.W.b.S r AXAXAXAXAXAXAXAX",
"AXAXAXAXAXAXAXAXAXL H 0.P.E.6.}.kX>X;XkXkX2XE   @ @ 9.S.L c.^.,X4XlX,X.XK.Q.(.e.V r AXAXAXAXAXAXAXAX",
"AXAXAXAXAXAXAXAXAXF 0.Z.S.P v }.kXOXOXlX3X^.Y + O O D 6.P P S y b.;X4X1Xr.N.Y.R 8 t AXAXAXAXAXAXAXAX",
"AXAXAXAXAXAXAXAXAXY R r.n.M.B.-X3XB.[.kX>XG.: o.g.g.g.g.j.g.-.*.s.B.>X,X! 4.r.V < t AXAXAXAXAXAXAXAX",
"AXAXAXAXAXAXAXAXAXr w , 9.T.)._.^.6.].lX=XN.Y {.uXuXuXyXyXyXuXuXtXR H.).e.F H U V t AXAXAXAXAXAXAXAX",
"AXAXAXAXAXAXAXAXAXr r w q W Y.Y.b.M.XX;XB.i.qXgXvXcXcXcXcXcXMXMXgX! H._.K.0.E A.r.e AXAXAXAXAXAXAXAX",
"AXAXAXAXAXAXAXAXAXr y Y ! 9.r.R v D.)./.c.+.tXxXBXmXvXvXMXbXzXzX2Xs.N.!.Q.R.B.V.9.r AXAXAXAXAXAXAXAX",
"AXAXAXAXAXAXAXAXAXq V G V.Z.R , Y E.).Z.6.s.qXxXvXvXvXvXvXzX/.'.^.].+.r.(.;X/.~ > t AXAXAXAXAXAXAXAX",
"AXAXAXAXAXAXAXAXAXr t V W M.R.W.E.Q.D.R i.].:XNXvXvXcXvX1X:X!.v.5.0.j.j.b.c.w.! S r AXAXAXAXAXAXAXAX",
"AXAXAXAXAXAXAXAXAXr y I V L U.I.!.B.9.C +.].G.2XmXvXmXvXOXv.y.9.M K {.uXd.Q q D S t AXAXAXAXAXAXAXAX",
"AXAXAXAXAXAXAXAXAXq V L U r t V t : } +.T ; O iXmXvXmXcXa.. t A A Z @XdXsX].K y e t AXAXAXAXAXAXAXAX",
"AXAXAXAXAXAXAXAXAX+ : L S i k.g.g.-.=.B   T {.pXhXfXhXfX$Xa.. o o.-.$XdXdX{.U {.a.O AXAXAXAXAXAXAXAX",
"AXAXAXAXAXAXAXAXAX  - F H ~ j.#XtXeXrX    Q sXdXpXaXaXaXfX#X    O.eXgXaX&Xd.T aX#X. AXAXAXAXAXAXAXAX",
"AXAXAXAXAXAXAXAXAX  O w n.Z.0.].dXZXeXX   Q aXdXaXaXaXaXdX@X    -.CXnX&X X7.V pX@X  AXAXAXAXAXAXAXAX",
"AXAXAXAXAXAXAXAXAXAX  . R e.D f.dXZXVX' 2 *.&XdXaXaXaXaXaX#X( 2 8XZXnX&X Xt.# a.a.AXAXAXAXAXAXAXAXAX",
"AXAXAXAXAXAXAXAXAXAXAX  + < . d.fXZXVX..[ -.sXdXdXsXsXdXdXtX .^ 0XCXZX&X X7.    AXAXAXAXAXAXAXAXAXAX",
"AXAXAXAXAXAXAXAXAXAXAXAX    k d.sXCXVX{ ^ -.cXvXvXcXbXvXvXyX[ / 9XCXnX%Xi.=   AXAXAXAXAXAXAXAXAXAXAX",
"AXAXAXAXAXAXAXAXAXAXAXAXe.9.k f.&XxXgXqXqXyXcXBXcXmXvXmXBXxXqXqXyXnXyX].t.6.4.AXAXAXAXAXAXAXAXAXAXAX",
"AXAXAXAXAXAXAXAXV C.XXXXU.J.R Q |.%XhXmXmXmXvXvXvXvXcXvXBXBXBXBXbXpXs.D Y.XXY.T.n.Y AXAXAXAXAXAXAXAX",
"AXAXAXAXAXAX, R V.,X1X1X<X(.K.r.Q |.%XhXvXmXmXmXvXvXvXMXBXBXBXbXpXs.0.[.1XlX4X:X/.^.w.> AXAXAXAXAXAX",
"AXAXAXAXAXAX> R J.,X1X1X>XE.A.! $ 8.z.@XsXdXhXhXbXNXNXNXhXhXhX%Xd.# 6.+X2X1X2X-X^.P.~ > AXAXAXAXAXAX",
"AXAXAXAXAXAX< W K.Y.J.K.J.Z.R + h <.<.Z L.z.z.%XaXaXaXpX X|.|.7.k e n.Y.J.J.Y.Y.n.e q t AXAXAXAXAXAX",
"AXAXAXAXAXy r.n.! P.I.! Z.W.~ + h <.<.K y.L.t.s.f.s.a.d.7.y.L.0.v q D.Q.9.B.^.w.b.P.! > AXAXAXAXAXAX",
"AXAXAXAXAXy S.A.1 D.Q.y S.).~ @ h 1.7.t..X+Xe.K M q.3.M 6.D.OX].H q !.(.y B._.U b.`.m.> AXAXAXAXAXAX",
"AXAXAXAXAXy V.A.t C.Z.I m.D.W $ h * J A.1XjX.X5.q.(.F.! I.<XlXOXb.r U.(.I A._.R b._.e.@ d AXAXAXAXAX",
"AXAXAXAXAXAXs.i.w F 3.k 3.t.v + * s 3.Y.>X<XT.e.q.Q.Z.L P.;X<X-XV.p ! n.} s.L.h.].N.G & j AXAXAXAXAX",
"AXAXAXAXAXAX( ( u 7 - 6 l g %   X g 7.A.I./.K.t.E V.e.H C.T./.!.n.p > / &.*.u.x.p.s s k d AXAXAXAXAX",
"AXAXAXAXAXAX_ ' $.' _ ` u 7 X @ 5 c K 4.Z.K.q.Y w r q t G N.T.M.R ) ] &.7X6Xo.A x h Z Z j AXAXAXAXAX",
"AXAXAXAXAXAX( _ #.#.#.#.' ) # # 0 N B Y ! t.K 7.b.B.S.q.J J e.K O.8X7X6X=.6X=.} * h m 1.d AXAXAXAXAX",
"AXAXAXAXAXAX6 p _ #.$.$.#._ $ # i 4 8 q 8 6 c y..X_.(.[.7.l 1   -.wXrX7X` =.8X' . h ;.;.z AXAXAXAXAX",
"AXAXAXAXAXAXQ B i 0 u u i 0 # % - 1 3 3 < 0 ` O.-.-.-.@.} u 4   %.wXwX=.u ' &._ +   ;.,.;.z h AXAXAX",
"AXAXAXAXAXAXZ B 1 0 u u 0 1 & a n N B A N 3 (  . .{  . .] ( 4 * o.8X7X%.| ' ' 3 - z ;.,.,.x a AXAXAX",
"AXAXAXAXAXAX  # 1 _ ' ` ) 5 h z m x 1.2.A 3 } o.%.%.%.%.| _ 1 n b 1 # u #.| , . z >.>.>.>.x a AXAXAX",
"AXAXAXAXAXAXa * + < < < 6 k d a k 1.p.l.A C h.h.h.h.h.h.p.A N b n , , 9 _ 9   * z >.>.,.>.x a AXAXAX",
"AXAXAXAXAXAXa a f f a = s f j s = m p.h.A A p.l.x.x.l.p.<.1.- k B N 6 6 6 & = a x >.>.>.>.z d AXAXAX",
"AXAXAXAXAXAX  a :.,.:.j d f f s     # i n b M 1.8.2.<.m b n 0 3 6 d f f j j j a x >.>.,.>.x a AXAXAX",
"AXAXAXAXAXAXAXs j z j * % = d d s o . < } %.-.g.g.*.} = p } _ 0 1 = a f f f j ;.>.,.,.,.,.z h AXAXAX",
"AXAXAXAXAXAXAXAX            s d a % . 1 ] &.9X7X9X..0   ) ] _ u <   * d a s f x ;.;.:.b ;.z d AXAXAX",
"AXAXAXAXAXAXAXAXAXAXAXAXAXAXo o o     . 1 ) ` | ` 1     X # X AXAXAXo o o o o % % % % % % AXAXAXAXAX",
"AXAXAXAXAXAXAXAXAXAXAXAXAXAXAXAXAXAXAXAX8 ' =.=.%.1   AXAXAXAXAXAXAXAXAXAXAXAXAXAXAXAXAXAXAXAXAXAXAX",
"AXAXAXAXAXAXAXAXAXAXAXAXAXAXAXAXAXAXAXAX) #.8X0X8Xu   AXAXAXAXAXAXAXAXAXAXAXAXAXAXAXAXAXAXAXAXAXAXAX"
};
