/* XPM */
static char *result[] = {
/* columns rows colors chars-per-pixel */
"50 50 249 2 ",
"   c #000001",
".  c #00020B",
"X  c #0A0404",
"o  c #180500",
"O  c #020616",
"+  c #0D0919",
"@  c #270201",
"#  c #370502",
"$  c #35141A",
"%  c #2D2F11",
"&  c #000023",
"*  c #0C0921",
"=  c #061726",
"-  c #181D2B",
";  c #2D1827",
":  c #1A2333",
">  c #122329",
",  c #2A2E26",
"<  c #212824",
"1  c #342B22",
"2  c #2E3126",
"3  c #333326",
"4  c #393626",
"5  c #3C3826",
"6  c #242A3B",
"7  c #2B363B",
"8  c #16261E",
"9  c #4D0B05",
"0  c #450907",
"q  c #540E03",
"w  c #570902",
"e  c #471205",
"r  c #5C1003",
"t  c #551809",
"y  c #491615",
"u  c #501015",
"i  c #6C1603",
"p  c #661904",
"a  c #731902",
"s  c #7B1B01",
"d  c #761402",
"f  c #641C17",
"g  c #710D09",
"h  c #493314",
"j  c #69230A",
"k  c #69221A",
"l  c #782815",
"z  c #782306",
"x  c #443D25",
"c  c #4A3D23",
"v  c #523C2A",
"b  c #682723",
"n  c #7A3E3C",
"m  c #6C3625",
"M  c #5E1B24",
"N  c #59451B",
"B  c #564A09",
"V  c #755E04",
"C  c #6B561C",
"Z  c #735D1E",
"A  c #765B19",
"S  c #685112",
"D  c #7A631E",
"F  c #77601D",
"G  c #7B6500",
"H  c #4C4324",
"J  c #494427",
"K  c #524623",
"L  c #554923",
"P  c #5B4C23",
"I  c #58492A",
"U  c #5F5024",
"Y  c #645322",
"T  c #6C5922",
"R  c #6B5928",
"E  c #725D21",
"W  c #735D2A",
"Q  c #6C4B32",
"!  c #6F632C",
"~  c #7D6421",
"^  c #79692A",
"/  c #00055E",
"(  c #193246",
")  c #2A364A",
"_  c #363D52",
"`  c #2C364A",
"'  c #102E67",
"]  c #4D3E4E",
"[  c #2E455C",
"{  c #3B4E66",
"}  c #4D464E",
"|  c #654E4A",
" . c #74564C",
".. c #78624C",
"X. c #4B536C",
"o. c #4B566E",
"O. c #6A556B",
"+. c #676976",
"@. c #737071",
"#. c #5A627C",
"$. c #821E02",
"%. c #801E0A",
"&. c #901D0C",
"*. c #8B2101",
"=. c #852105",
"-. c #952500",
";. c #9A2600",
":. c #942512",
">. c #A62B18",
",. c #A0290E",
"<. c #872927",
"1. c #942C25",
"2. c #95342D",
"3. c #8C3532",
"4. c #973633",
"5. c #AC2E28",
"6. c #B6322A",
"7. c #A43A36",
"8. c #B12F25",
"9. c #A0050F",
"0. c #CE3A35",
"q. c #D23B36",
"w. c #DB3F3B",
"e. c #D73D3A",
"r. c #C8382F",
"t. c #885417",
"y. c #856705",
"u. c #866919",
"i. c #937911",
"p. c #8E5232",
"a. c #AD413D",
"s. c #846C23",
"d. c #896E25",
"f. c #8E722B",
"g. c #887324",
"h. c #9B7D2B",
"j. c #947926",
"k. c #977B34",
"l. c #8D6D34",
"z. c #A46F35",
"x. c #A46B1E",
"c. c #DE403D",
"v. c #963F47",
"b. c #854543",
"n. c #8B504C",
"m. c #AF4947",
"M. c #B44C49",
"N. c #A94D51",
"B. c #836549",
"V. c #917150",
"C. c #A77E5D",
"Z. c #AF7248",
"A. c #917067",
"S. c #B1706C",
"D. c #C76A67",
"F. c #A98C0C",
"G. c #9A852A",
"H. c #8E832D",
"J. c #A3852D",
"K. c #AC8B2D",
"L. c #A58828",
"P. c #A9912A",
"I. c #B5992B",
"U. c #AD8D33",
"Y. c #A38232",
"T. c #B08E33",
"R. c #B49233",
"E. c #BB9935",
"W. c #BB9735",
"Q. c #AF9032",
"!. c #BDA42E",
"~. c #9C8514",
"^. c #C7AC12",
"/. c #C29D39",
"(. c #C3A82A",
"). c #C2A335",
"_. c #C5A139",
"`. c #C9A539",
"'. c #CAAA36",
"]. c #CDB332",
"[. c #D3B334",
"{. c #D5BB35",
"}. c #DBBB39",
"|. c #D8B935",
" X c #D4B42D",
".X c #DFC436",
"XX c #E7CA38",
"oX c #EDD239",
"OX c #F2D537",
"+X c #E4C62C",
"@X c #E0C31E",
"#X c #9D9256",
"$X c #9A8F4B",
"%X c #A68A45",
"&X c #AC974D",
"*X c #A9845C",
"=X c #B49358",
"-X c #B98C68",
";X c #B39177",
":X c #BFA548",
">X c #CC8347",
",X c #C49C49",
"<X c #CF8953",
"1X c #CAA748",
"2X c #D1B34D",
"3X c #CD9770",
"4X c #D5BB64",
"5X c #D5A977",
"6X c #E5A675",
"7X c #E4A26C",
"8X c #E1AE61",
"9X c #F4D95A",
"0X c #E9CC48",
"qX c #F5DC67",
"wX c #F5DC76",
"eX c #E9CC68",
"rX c #FDE577",
"tX c #FBE16A",
"yX c #DEC453",
"uX c #72758C",
"iX c #857B8F",
"pX c #BB8E91",
"aX c #B18E88",
"sX c #AFB4BB",
"dX c #9CA3A6",
"fX c #D79E8B",
"gX c #D7B092",
"hX c #E7AF82",
"jX c #EDB485",
"kX c #EDB588",
"lX c #F3BB8B",
"zX c #F0B686",
"xX c #E5BA95",
"cX c #F1BF91",
"vX c #DABEB1",
"bX c #ECC695",
"nX c #F7C799",
"mX c #E9C48F",
"MX c #FEE886",
"NX c #FFF38C",
"BX c #EEC7AA",
"VX c #F4CBA5",
"CX c #FFDAAD",
"ZX c #FAD4A8",
"AX c #FFDDB1",
"SX c #FFE1B5",
"DX c #DED3CC",
"FX c #E8DBCD",
"GX c None",
/* pixels */
"GXGXGXGXGXGXGXGXGXGXGXGXGXGXGXGXGXGXGXGXGXGXGXGXGXGXGXGXGXGXGXGXGXGXGXGXGXGXGXGXGXGXGXGXGXGXGXGXGXGX",
"GXGXGXGXGXGXGXGXGXGXGXGXGXGXGXGXGXGXGXGXGXGXGXGXGXGXGXGXGXGXGXGXGXGXGXGXGXGXGXGXGXGXGXGXGXGXGXGXGXGX",
"GXGXGXGXGXGXGXGXGXF T P GXGX3 Y s.~ s.s.u.s.D D E 5 Y ~ K 3 4 J H GXGXGXGXGXGXGXGXGXGXGXGXGXGXGXGXGX",
"GXGXGXGXGXGXGXGXGX& ^ [.!.N h u.T.U.!..X.X{.W.f.C C j.Q.s.H 3 k.Y.x > , GXGXGXGXGXGXGXGXGXGXGXGXGXGX",
"GXGXGXGXGXGXGXGXGX1 ^ ].I.f.&X2X[.[.[.]..XXX|.E.j.Z R.|.h.N c ).`.x 2 H GXGXGXGXGXGXGXGXGXGXGXGXGXGX",
"GXGXGXGXGXGXGXGXF ~ Z Z h.1XMXtXXXOX].~ k.[.oX}.R.Z !.XXG.N D {.|.J P E x , GXGXGXGXGXGXGXGXGXGXGXGX",
"GXGXGXGXGXGXGXL.{.P.A L.4XqX9XqXrXrXqX{.L.P.OX'.d.C K.|.g.j.{.}.!.T h.K.E H 3 GXGXGXGXGXGXGXGXGXGXGX",
"GXGXGXGXGXGXN j.{.L.u.W.eXrX9XqXMXMXqX}.g.g.XXI.Y s.h.K.g.).OX].h.Z R./.d.L 3 GXGXGXGXGXGXGXGXGXGXGX",
"GXGXGXGXGXGX4 5 J Y d.W.|.0XrXMXrX9X].K O ~ _.G.s.R.J.F Q.}.oXP.Y A U./.s.N 3 GXGXGXGXGXGXGXGXGXGXGX",
"GXGXGXGXGXGXGXGXGX* ^ {.+X}.MXMX9X].i.    % F j.W. XyX4XU.P.|.h.E L./.E.P < 3 3 GXGXGXGXGXGXGXGXGXGX",
"GXGXGXGXGXGXGXGXGX& ! XX|./.wXqX+X~.v | | } ] l.'.0XrXMX&Xy.R.f.h._./.U.W J J 4 4 GXGXGXGXGXGXGXGXGX",
"GXGXGXGXGXGX3 3 GX& Y /./.`.0X0X).G B.pXpXpXpXA.h.wXNXMX2Xj.~ U._._.h.s.E.J.T x , GXGXGXGXGXGXGXGXGX",
"GXGXGXGXGXGXY P 3 & x f.).}..X(.G.A.pXBXBXBXBX;XG 4XqXqX0X/.h.R.`.`.T.J.K.f.L 5 3 GXGXGXGXGXGXGXGXGX",
"GXGXGXGXGXGXD T x J P T (.XX`.i.W ;XxXCXCXZXCX3Xs.K.[.XXoXXX`._./.E./.W.D H 4 3 4 GXGXGXGXGXGXGXGXGX",
"GXGXGXGXGXGXx K T Y.E.E.`.'.h.N x 1X9X9XyX4X1X3XiXz.~.[.XXXXXX|.R.s.s.s.c P T x 2 GXGXGXGXGXGXGXGXGX",
"GXGXGXGXGXGXGX5 Y h.R.R.K.G.B P B.[.@X^.F.R.5XbXgX .V U.|.XXXX/.J.h.s.C K T ~ J , GXGXGXGXGXGXGXGXGX",
"GXGXGXGXGXGXGXGX3 P F Z W W 4 ..=X1XL.Z B #XZXSXVX..% A T././.d.g./.G.Z Z ~ E c , GXGXGXGXGXGXGXGXGX",
"GXGXGXGXGXGXGXGXGXx x H ..S.aXA.Y ! W Q j p.7XkXxX;X .% L R W K Y j.W K F T H GXGXGXGXGXGXGXGXGXGXGX",
"GXGXGXGXGXGXGXGXGXGX< . A.fXgXfXB.1 o b  .V.Z.7XhXfXS.I ! P O = H Z K 3 T K , GXGXGXGXGXGXGXGXGXGXGX",
"GXGXGXGXGXGXGXGXGXGXGX  C.zXjXzXjX..  . @.aX<X7XkXkXfXS.,XJ., > L F P 2 3 4 4 GXGXGXGXGXGXGXGXGXGXGX",
"GXGXGXGXGXGXGXGXGXGXGX  *XlXjXlXjXB..   dXvX<X7XzXzX6X<Xh.%X3X..% L 5 , 3 3 4 GXGXGXGXGXGXGXGXGXGXGX",
"GXGXGXGXGXGXGXGXGXGXGX  C.lXjXjXhX... = sXDX7X7XcXcX6X>Xt.=XlXV.  , J J 5 3 4 GXGXGXGXGXGXGXGXGXGXGX",
"GXGXGXGXGXGXGXGXGXGXGX  *XzXzX6XhXA./ ' sXDXgXnXCXCXlX>Xy.=XlXC.. 2 Y E x , GXGXGXGXGXGXGXGXGXGXGXGX",
"GXGXGXGXGXGXGXGXGXGXGX  -XnXZXZXnX@./ ' sXDXVXVXAXAXnXZ.C | C.Q 2 Y F E x GXGXGXGXGXGXGXGXGXGXGXGXGX",
"GXGXGXGXGXGXGXGXGXGXGX  ;XSXSXAXCXaXX.+.sXFXAXCXAXAXcX>Xm     < I E D E x , GXGXGXGXGXGXGXGXGXGXGXGX",
"GXGXGXGXGXGXGXGXGXGXGX  aXSXCXCXCXVXBXVXZXAXZXCXCXAXcX>XQ . 1 C T x T Z 5 , GXGXGXGXGXGXGXGXGXGXGXGX",
"GXGXGXGXGXGXGXGXGXGXGX  =XZXCXSXAXAXSXSXCXCXCXAXAXZXhXz.y O < C E 1 Y E x , GXGXGXGXGXGXGXGXGXGXGXGX",
"GXGXGXGXGXGXGXGXGXGXGXX t.<XnXAXCXCXCXCXCXCXAXZXVXlX-Xk % % H ! T 5 Y E x GXGXGXGXGXGXGXGXGXGXGXGXGX",
"GXGXGXGXGXGXGXGXGXGXGXGX# Q 7X6XbXZXAXCXCXAXSXgX*X,XW.L.L.K.T.d.N 3 x H GXGXGXGXGXGXGXGXGXGXGXGXGXGX",
"GXGXGXGXGXGXGXGXGXGXGXGXGXX t.Z.-XgXxXmXnXmXxX=Xi.^.2XeXeXyX[./.s.K 3 , GXGXGXGXGXGXGXGXGXGXGXGXGXGX",
"GXGXGXGXGXGXGXGXGXGXGXGXGXGX    X M f./.`.W.u.h.'.+XqXMXMXwXXX XR.s.K 4 t w GXGXGXGXGXGXGXGXGXGXGXGX",
"GXGXGXGXGXGXGXGXGXGXGXGXGXGXG.!.(.V %XwX&XV ~.h.L.'.1X#X#X$Xk.s.l.R.^ $ $.d 0 GXGXGXGXGXGXGXGXGXGXGX",
"GXGXGXGXGXGXGXGXGXGXGXGXGXGXR.}.OX~.&XrX#X5 _.Y.T '.G.. . X u & ! _.k.c *.$.i GXGXGXGXGXGXGXGXGXGXGX",
"GXGXGXGXGXGXGXGXGXGXGXGXGXGXC !.oXG.P.oXH.L E.d.R XX'.= # g &.y ! /.J.C t d -.p 0 GXGXGXGXGXGXGXGXGX",
"GXGXGXGXGXGXGXGXGXGXGXGXGXGXC g.P.K G.+X].k.l.N B G.g.t <.<.d a t.x.t.h t r s $.a 0 GXGXGXGXGXGXGXGX",
"GXGXGXGXGXGXGXGXGXGXGXGXGXGXD P & 4 G..X[.K.x 7 _ ; b 3.a.7.f $.&.9.9.w q 9 r *.$.p GXGXGXGXGXGXGXGX",
"GXGXGXGXGXGXGXGXGXGXGXGXGXGXD P 5 T.T.P V y.V +.@.v.M.D.m.7.7.k %.0.8.$.w 9 q r s *.i 0 GXGXGXGXGXGX",
"GXGXGXGXGXGXGXGXGXGXGXGXGXGXGXN h u.V.o.+.+.R uXiXS.D.D.m.7.4.f g 5.6.8.$.r 9 9 a -.$.i 9 GXGXGXGXGX",
"GXGXGXGXGXGXGXGXGXGXGXGXGXGXGXGX0 . [ uXuXuX` o.iXD.D.D.m.1.p e @ # 6.q.>.$.w 9 a ;.;.=.p GXGXGXGXGX",
"GXGXGXGXGXGXGXGXGXGXGXGXGXGXGXGX<   6 o.#.X.6 [ O.N.M.m.2.f o   . 0 6.w.0.>.s w i ;.;.*.&.i 9 GXGXGX",
"GXGXGXGXGXGXGXGXGXGXGXGXGXGXGXGX> = - ` _ _ ( ( ] 3.1.2.j e 0 f b t >.r.q.0.>.$.a s *.;.;.a 9 GXGXGX",
"GXGXGXGXGXGXGXGXGXGXGXGXGXGXGXGX- : = X + 6 _ : ; j l a y t l 7.7.l s ,.q.w.q.>.a q =.;.-.i 9 GXGXGX",
"GXGXGXGXGXGXGXGXGXGXGXGXGXGXGXGXy $ y p # . O . . @ 0 i 2.3.l 7.7.l e f 0.c.q.,.a q =.;.;.a q GXGXGX",
"GXGXGXGXGXGXGXGXGXGXGXGXGXGXGXGXy k l l k b n n  .3.p.m.a.2.p 3.3.k   u 6.q.q.8.&.q s *.$.i 9 GXGXGX",
"GXGXGXGXGXGXGXGXGXGXGXGXGXGXGXGXu 4.7.j 1.M.D.D.D.D.D.D.m.<.0 : : - O # $.6.e.w.5.q q q r GXGXGXGXGX",
"GXGXGXGXGXGXGXGXGXGXGXGXGXGXGXGXGXb k e f m b.b.b.b.b.b. .O.} ) ( ) = @ r 5.w.c.6.q @ @ @ GXGXGXGXGX",
"GXGXGXGXGXGXGXGXGXGXGXGXGXGXGXGXGX. . O O .         . = [ { X._ ` _ : X # >.0.w.5.0     . GXGXGXGXGX",
"GXGXGXGXGXGXGXGXGXGXGXGXGXGXGXGXGX- - - - =           . . * - - 6 [ : o 9 s >.q.5.  GXGXGXGXGXGXGXGX",
"GXGXGXGXGXGXGXGXGXGXGXGXGXGXGXGXGXGXGXGXGXGXGXGX    . - 7 _ _ ) 6 6 = GXGXi a 1.<.GXGXGXGXGXGXGXGXGX",
"GXGXGXGXGXGXGXGXGXGXGXGXGXGXGXGXGXGXGXGXGXGXGXGXGX  O 6 X.o.X.} 7   GXGXGXGX9     GXGXGXGXGXGXGXGXGX"
};
