/* XPM */
static char *result[] = {
/* columns rows colors chars-per-pixel */
"50 50 243 2 ",
"   c #000001",
".  c #060207",
"X  c #180404",
"o  c #010411",
"O  c #040B1A",
"+  c #02111E",
"@  c #250201",
"#  c #380602",
"$  c #30161B",
"%  c #1B2915",
"&  c #36361C",
"*  c #262C15",
"=  c #000224",
"-  c #081826",
";  c #1A1F2E",
":  c #151A28",
">  c #2D1827",
",  c #1A2333",
"<  c #11232B",
"1  c #2A2E26",
"2  c #222625",
"3  c #2E3127",
"4  c #333326",
"5  c #393626",
"6  c #3D3A26",
"7  c #3B3629",
"8  c #242A3B",
"9  c #31302B",
"0  c #4D0B05",
"q  c #450907",
"w  c #540E03",
"e  c #570902",
"r  c #471205",
"t  c #5C1003",
"y  c #561909",
"u  c #4A1615",
"i  c #501015",
"p  c #6C1603",
"a  c #661904",
"s  c #731902",
"d  c #7B1B01",
"f  c #761402",
"g  c #641C17",
"h  c #710D09",
"j  c #493417",
"k  c #6B220D",
"l  c #68241B",
"z  c #782815",
"x  c #782306",
"c  c #443D25",
"v  c #493D25",
"b  c #4D383A",
"n  c #6A2422",
"m  c #6A3823",
"M  c #7A3E3C",
"N  c #752E2C",
"B  c #5E1B24",
"V  c #59471D",
"C  c #504709",
"Z  c #745D04",
"A  c #634E1D",
"S  c #6A541C",
"D  c #6A561D",
"F  c #735D1E",
"G  c #6C4F0A",
"H  c #77601F",
"J  c #7A621E",
"K  c #7C691F",
"L  c #716308",
"P  c #4C4324",
"I  c #4B4329",
"U  c #534623",
"Y  c #554923",
"T  c #5A4B23",
"R  c #554929",
"E  c #55463A",
"W  c #645222",
"Q  c #6D5922",
"!  c #6A5826",
"~  c #725D21",
"^  c #735B2A",
"/  c #735137",
"(  c #7D6522",
")  c #7A6629",
"_  c #6F632E",
"`  c #00055E",
"'  c #193246",
"]  c #2A364A",
"[  c #363D52",
"{  c #2C364A",
"}  c #102E67",
"|  c #4A3C4A",
" . c #2E455C",
".. c #3B4E66",
"X. c #474550",
"o. c #6B5448",
"O. c #7B5A48",
"+. c #744C53",
"@. c #4B536C",
"#. c #4B566E",
"$. c #6A556B",
"%. c #676976",
"&. c #737071",
"*. c #5A627C",
"=. c #821E02",
"-. c #801E0A",
";. c #901D0C",
":. c #8B2101",
">. c #852105",
",. c #952500",
"<. c #9A2600",
"1. c #942512",
"2. c #A62B18",
"3. c #A0290E",
"4. c #872927",
"5. c #942C25",
"6. c #95342D",
"7. c #8C3532",
"8. c #973633",
"9. c #AC2E28",
"0. c #B6322A",
"q. c #A43A36",
"w. c #B12F25",
"e. c #A0050F",
"r. c #CE3A35",
"t. c #D23B36",
"y. c #DB3F3B",
"u. c #D73D3A",
"i. c #C8382F",
"p. c #8A511A",
"a. c #886C0A",
"s. c #895134",
"d. c #AD413D",
"f. c #856B24",
"g. c #876E27",
"h. c #8C7328",
"j. c #947B24",
"k. c #9B7C2C",
"l. c #94782A",
"z. c #967A33",
"x. c #8B6B31",
"c. c #A7682D",
"v. c #DE403D",
"b. c #963F47",
"n. c #854543",
"m. c #88534D",
"M. c #AF4947",
"N. c #B44C49",
"B. c #A94D51",
"V. c #816445",
"C. c #8E724F",
"Z. c #A67D5C",
"A. c #AF7248",
"S. c #8D7171",
"D. c #AA7B7B",
"F. c #BA6669",
"G. c #C76A67",
"H. c #9B8512",
"J. c #A99111",
"K. c #99842A",
"L. c #8E832D",
"P. c #A4852D",
"I. c #AB8A2E",
"U. c #A58927",
"Y. c #AB932A",
"T. c #B6992B",
"R. c #AD8D33",
"E. c #A98935",
"W. c #B08E33",
"Q. c #B39233",
"!. c #BD9B35",
"~. c #B89934",
"^. c #AF9032",
"/. c #BCA32D",
"(. c #C5AA1D",
"). c #C19E36",
"_. c #C29D38",
"`. c #C0963F",
"'. c #C4A72A",
"]. c #CBAB35",
"[. c #C6A239",
"{. c #C8A738",
"}. c #D4BB33",
"|. c #D9BD33",
" X c #D4B338",
".X c #DBBB39",
"XX c #D4B436",
"oX c #D1B732",
"OX c #DDC130",
"+X c #E5C82C",
"@X c #EACE35",
"#X c #E6C937",
"$X c #EDD139",
"%X c #ECD036",
"&X c #F2D538",
"*X c #9D9256",
"=X c #9A8F4B",
"-X c #AB8943",
";X c #AD8F55",
":X c #BBA34D",
">X c #B78B68",
",X c #B89D7E",
"<X c #AD8A67",
"1X c #CE8E53",
"2X c #D8BA53",
"3X c #D59469",
"4X c #CFB16C",
"5X c #EBAD74",
"6X c #DFC44B",
"7X c #F5DB56",
"8X c #EACD4D",
"9X c #F7DD68",
"0X c #E8CB69",
"qX c #FCE478",
"wX c #FAE16C",
"eX c #72758C",
"rX c #857B8F",
"tX c #B08F87",
"yX c #AFB4BB",
"uX c #9CA3A5",
"iX c #D6B58C",
"pX c #D0AC88",
"aX c #E6AE83",
"sX c #ECB485",
"dX c #ECB78A",
"fX c #F1B687",
"gX c #E2BC92",
"hX c #D2B5AC",
"jX c #E4BBA1",
"kX c #D79F84",
"lX c #F8C89A",
"zX c #F1CD8F",
"xX c #FFEC8B",
"cX c #FFEA85",
"vX c #F5CDA3",
"bX c #FFD9AD",
"nX c #FAD4A8",
"mX c #FFDDB1",
"MX c #EECBA5",
"NX c #FFE2B4",
"BX c #DED3CC",
"VX c #E8DBCD",
"CX c None",
/* pixels */
"CXCXCXCXCXCXCXCXCXCXCXCXCXCXCXCXCXCXCXCXCXCXCXCXCXCXCXCXCXCXCXCXCXCXCXCXCXCXCXCXCXCXCXCXCXCXCXCXCXCX",
"CXCXCXCXCXCXCXCXCXCXCXCXCXCXCXCXCXCXCXCXCXCXCXCXCXCXCXCXCXCXCXCXCXCXCXCXCXCXCXCXCXCXCXCXCXCXCXCXCXCX",
"CXCXCXCXCXCXCXCXCXCXCXCXCXCXCXCXCXI I 5 4 U ( W c ~ T I Q.Q.H v P J R 1 CXCXR H J CXCXCXCXCXCXCXCXCX",
"CXCXCXCXCXCXCXCXCXCXCXCXCXCX1 < c P.z.4 P f.R.l.Q ~ F S ( ( D V A D c = = ~.}._ = CXCXCXCXCXCXCXCXCX",
"CXCXCXCXCXCXCXCXCXCXCXCXCXCXP 1 c {.{.c V j. XQ.S D f.k.U.Y.Y.T.T.Y.K.^ 5 ~.#Xg.> CXCXCXCXCXCXCXCXCX",
"CXCXCXCXCXCXCXCXCXCXCXCX1 c F V I }.|.K A K.@X'.S F k.[.#X$X%X%X$X$X.XQ.( P.!.g.F J CXCXCXCXCXCXCXCX",
"CXCXCXCXCXCXCXCXCXCXCX4 P ~ R.k.! !.OXOXj.f.XX|.XXR.'.+X$X$X%X.X.X&X&X.X~.l.^ A Y.}.U.CXCXCXCXCXCXCX",
"CXCXCXCXCXCXCXCXCXCXCX4 V h.).Q.J k.].8X/.f.P.].|. X6X7X$X@X@X].!.XX|.|.{.z.4 ( /.|.j.V CXCXCXCXCXCX",
"CXCXCXCXCXCXCXCXCXCXCX4 U f.!.R.F S Y.@X XR.( D j.OX9XcX8X+X%XXXR.U A j.).P.( ~.W.K P 4 CXCXCXCXCXCX",
"CXCXCXCXCXCXCXCXCXCX4 3 2 W !.Q.F h.Q.XX#XOX^.z.U.+XwXxXqXwX9X6Xk.%   C l.f.! _.Q.S c CXCXCXCXCXCXCX",
"CXCXCXCXCXCXCXCXCX4 5 I P ^ W.P.J ).2XQ.}.|./.~.XX#X7XqXxXxXxX2Xj.v | o.D C I R.P.D CXCXCXCXCXCXCXCX",
"CXCXCXCXCXCXCXCXCX1 c D P.!.h.D K |.#X!.l.Z G /.$X@X@X7XcXxXxX:Xm E D.tXf.j 6 ( ~ c CXCXCXCXCXCXCXCX",
"CXCXCXCXCXCXCXCXCX4 6 Y h.I.I.g.F ].#X.X2X4X4X6X&X$XOXXX0X9X0Xk.V.pXjXjX<Xo.& V U CXCXCXCXCXCXCXCXCX",
"CXCXCXCXCXCXCXCXCX4 5 4 V ( ~.^.f.P.].@XwXcXcX9X+X@X.X{.+X|.T.a.<XbXmXbXhXS.% 1 1 CXCXCXCXCXCXCXCXCX",
"CXCXCXCXCXCXCXCXCX3 c Q Y c ( P.~.^ f.].$X7X7X6X{.{.|.#X.XT.f.z.4XbXmXbXnX,X      CXCXCXCXCXCXCXCXCX",
"CXCXCXCXCXCXCXCXCX1 I J Q U A P.1X) U z.T.(.(.!._._.].].E.x.^ A.4XcXnXmXmXpX#     CXCXCXCXCXCXCXCXCX",
"CXCXCXCXCXCXCXCXCX1 c ~ f.~ F K.{.j.V 6 W ( H E.[.[.P.D & b V.-X'.+XzXmXmX4Xa X   CXCXCXCXCXCXCXCXCX",
"CXCXCXCXCXCXCXCXCXCXCXI S J T R _ H h.^.Q.!.}.}.!.K & 2 y m O./ L L gXbXlX<X. CXCXCXCXCXCXCXCXCXCXCX",
"CXCXCXCXCXCXCXCXCXCXCX1 U Q 6 1 c Y h.T.^.~.oX/.z.+.o.s.O.O.l X 2 O.iXnXfXZ.  CXCXCXCXCXCXCXCXCXCXCX",
"CXCXCXCXCXCXCXCXCXCXCX5 5 4 4 T H v U ( T 3 6 % E D.3X1XtXeX    m.aXfXsXfXZ.  CXCXCXCXCXCXCXCXCXCXCX",
"CXCXCXCXCXCXCXCXCXCXCX5 5 4 1 c T c 2 % j.K.j +.<XkX3X3XhXuXo   V.fXfXsXfXZ.  CXCXCXCXCXCXCXCXCXCXCX",
"CXCXCXCXCXCXCXCXCXCXCX5 4 5 I c 1 1 E V.R.T.H.;XtXdX5X3XBXyX-   V.aXfXsXfXZ.  CXCXCXCXCXCXCXCXCXCXCX",
"CXCXCXCXCXCXCXCXCXCXCXCX1 c F W 1 o C.5X;XH.#XJ.C.vXlXaXBXyX} ` S.aXfXsXfXZ.  CXCXCXCXCXCXCXCXCXCXCX",
"CXCXCXCXCXCXCXCXCXCXCXCXCXc ~ F A & o.<XO.D /.J.-XnXmXMXBXyX} ` &.lXlXvXnX<X  CXCXCXCXCXCXCXCXCXCXCX",
"CXCXCXCXCXCXCXCXCXCXCXCX1 c Q K ~ T *   O v ^ -X5XnXNXmXVXyX%.@.tXbXNXNXNX,X  CXCXCXCXCXCXCXCXCXCXCX",
"CXCXCXCXCXCXCXCXCXCXCXCX1 c ~ Q v Q W 1 o S A.dXbXnXbXbXmXnXMXMXnXbXbXbXNX,X  CXCXCXCXCXCXCXCXCXCXCX",
"CXCXCXCXCXCXCXCXCXCXCXCX1 c ~ W 4 Q Q 2 o i c.aXnXbXbXbXbXbXNXmXNXbXbXnXzX<X  CXCXCXCXCXCXCXCXCXCXCX",
"CXCXCXCXCXCXCXCXCXCXCXCXCXc Q W 5 Q Q v & j n 1XfXnXbXbXbXbXbXbXbXbXbXnX1Xp.  CXCXCXCXCXCXCXCXCXCXCX",
"CXCXCXCXCXCXCXCXCXCXCXCXCXCXP c 4 V h.R.I.U.U.`.1X=XiXmXNXbXmXmXbXlX5X3X^ # CXCXCXCXCXCXCXCXCXCXCXCX",
"CXCXCXCXCXCXCXCXCXCXCXCXCXCX1 4 U g.T..X6X0X0X6X(.a.<XgXzXzXzXgXiX>XA.p.  CXCXCXCXCXCXCXCXCXCXCXCXCX",
"CXCXCXCXCXCXCXCXCXCXCXCXe t 5 U ( ^. X@XwXxXcX9X+X].k.a.I.2X!.x.g X     CXCXCXCXCXCXCXCXCXCXCXCXCXCX",
"CXCXCXCXCXCXCXCXCXCXCXq f -.> ) ^.z.) l.=X*X*X:X].U.j.U.Z ;X0X-XL '.T.P.CXCXCXCXCXCXCXCXCXCXCXCXCXCX",
"CXCXCXCXCXCXCXCXCXCXCXp d >.j z.[.^ = i .     P.].~ K.[.j *XqX:XH.&X.XQ.CXCXCXCXCXCXCXCXCXCXCXCXCXCX",
"CXCXCXCXCXCXCXCXCXq a :.f y S E.).^ u ,.h # - {.#X_ x.!.R K.$XK.K.%X/.W CXCXCXCXCXCXCXCXCXCXCXCXCXCX",
"CXCXCXCXCXCXCXCXq f =.d h t j p.c.p.s f 4.4.i h.L.C V g.z.].&XK.Y P.h.D CXCXCXCXCXCXCXCXCXCXCXCXCXCX",
"CXCXCXCXCXCXCXCXa =.:.t q e e =.e.,.-.g 8.d.6.B > X.8 I P.oXOXL.5 = T K CXCXCXCXCXCXCXCXCXCXCXCXCXCX",
"CXCXCXCXCXCXq p :.d t w 0 t f w.r.;.g q.q.M.G.M.n.eX&.Z L L G Y.R.7 T ( CXCXCXCXCXCXCXCXCXCXCXCXCXCX",
"CXCXCXCXCX0 p =.<.s q 0 t d w.0.9.g g 8.9.N.G.G.F.rX%.o.&.%.@.C.f.j T CXCXCXCXCXCXCXCXCXCXCXCXCXCXCX",
"CXCXCXCXCXa =.<.,.s w t =.2.t.0.q @ r k 6.M.G.G.G.rX#. .%.eXeX .  # CXCXCXCXCXCXCXCXCXCXCXCXCXCXCXCX",
"CXCXCX0 p :.,.,.,.s w d 2.t.y.0.q     X g 6.M.N.B.$. ., @.*.*.8   > CXCXCXCXCXCXCXCXCXCXCXCXCXCXCXCX",
"CXCXCXw s ,.,.,.-.s x w.i.y.i.2.y n n # r k 6.5.7.| ' ] |  .] < - < CXCXCXCXCXCXCXCXCXCXCXCXCXCXCXCX",
"CXCXCX0 p ,.<.=.w s 2.t.y.r.1.d z q.q.z y y k x g > ' { 8 O . : ; ; CXCXCXCXCXCXCXCXCXCXCXCXCXCXCXCX",
"CXCXCX0 s ,.<.:.w p 3.r.v.r.k r z q.q.z 7.6.k q #     O   # k u $ $ CXCXCXCXCXCXCXCXCXCXCXCXCXCXCXCX",
"CXCXCX0 p =.=.d t ;.0.r.t.0.i   l 7.4.a 6.d.d.s.7.M M M n l z z l 0 CXCXCXCXCXCXCXCXCXCXCXCXCXCXCXCX",
"CXCXCXCXCXt t w w 9.y.t.0.:.# O ; ; : i 5.N.G.G.G.G.G.G.M.5.z 8.8.i CXCXCXCXCXCXCXCXCXCXCXCXCXCXCXCX",
"CXCXCXCXCX@ @ @ w 0.v.y.w.t X - ] ' { X.$.$.m.n.+.n.n.n.N g r g n CXCXCXCXCXCXCXCXCXCXCXCXCXCXCXCXCX",
"CXCXCXCXCX      q 9.y.r.2.# . , [ { [ @...] -             o o o . CXCXCXCXCXCXCXCXCXCXCXCXCXCXCXCXCX",
"CXCXCXCXCXCXCXCX  9.t.2.s 0 X , [ 8 : ; - .             - ; ; ; ; CXCXCXCXCXCXCXCXCXCXCXCXCXCXCXCXCX",
"CXCXCXCXCXCXCXCXCX4.5.s p CXCX- 8 8 {  .[ { : .     CXCXCXCXCXCXCXCXCXCXCXCXCXCXCXCXCXCXCXCXCXCXCXCX",
"CXCXCXCXCXCXCXCXCX    0 CXCXCXCX  8 X.#.#.@.8 .   CXCXCXCXCXCXCXCXCXCXCXCXCXCXCXCXCXCXCXCXCXCXCXCXCX"
};
