/* XPM */
static char *result[] = {
/* columns rows colors chars-per-pixel */
"50 50 224 2 ",
"   c #000000",
".  c #0E0100",
"X  c #1D0100",
"o  c #110100",
"O  c #00001B",
"+  c #00101F",
"@  c #1E021A",
"#  c #220201",
"$  c #2B0200",
"%  c #330301",
"&  c #3E0000",
"*  c #3C040D",
"=  c #360216",
"-  c #250019",
";  c #362F1C",
":  c #372F1D",
">  c #000024",
",  c #000923",
"<  c #011825",
"1  c #191D2D",
"2  c #231D21",
"3  c #1A2625",
"4  c #152327",
"5  c #002131",
"6  c #132630",
"7  c #242C26",
"8  c #2B2E26",
"9  c #242725",
"0  c #2E3026",
"q  c #343326",
"w  c #393625",
"e  c #3D3925",
"r  c #373B26",
"t  c #322B39",
"y  c #4D0200",
"u  c #440904",
"i  c #4C0B04",
"p  c #430007",
"a  c #540202",
"s  c #540D04",
"d  c #590E05",
"f  c #560205",
"g  c #5C1104",
"h  c #5E120B",
"j  c #460611",
"k  c #571518",
"l  c #4F1C18",
"z  c #6C0003",
"x  c #631302",
"c  c #6C1603",
"v  c #6F1802",
"b  c #64140C",
"n  c #69160D",
"m  c #751A02",
"M  c #7B1C02",
"N  c #741500",
"B  c #761B16",
"V  c #49291B",
"C  c #542C15",
"Z  c #4A3A1E",
"A  c #5A3719",
"S  c #6F2E12",
"D  c #461D26",
"F  c #443D25",
"G  c #493F22",
"H  c #5B4B1F",
"J  c #57451A",
"K  c #624C1B",
"L  c #654915",
"P  c #66531C",
"I  c #6B551C",
"U  c #6E591D",
"Y  c #735D1E",
"T  c #77591E",
"R  c #7D4D1B",
"E  c #77601F",
"W  c #79621F",
"Q  c #7D681F",
"!  c #4B4124",
"~  c #4B4429",
"^  c #4B4628",
"/  c #534522",
"(  c #5A4C23",
")  c #544A28",
"_  c #584820",
"`  c #5C5329",
"'  c #5D5725",
"]  c #645322",
"[  c #695522",
"{  c #6D5A22",
"}  c #6C5D2B",
"|  c #68562B",
" . c #725D20",
".. c #715E2B",
"X. c #6D632A",
"o. c #7D6521",
"O. c #7D6924",
"+. c #76632B",
"@. c #7B652B",
"#. c #786828",
"$. c #7C712B",
"%. c #2A3143",
"&. c #323D52",
"*. c #831E01",
"=. c #881D03",
"-. c #8F140D",
";. c #8C2100",
":. c #882105",
">. c #942400",
",. c #992602",
"<. c #9A260A",
"1. c #9B270D",
"2. c #882113",
"3. c #9D2813",
"4. c #9C281A",
"5. c #A22A14",
"6. c #A52B1A",
"7. c #AC2D1D",
"8. c #A12610",
"9. c #B02F1F",
"0. c #A0290A",
"q. c #962822",
"w. c #AD2D22",
"e. c #A72B2B",
"r. c #B42D26",
"t. c #B53124",
"y. c #BB3329",
"u. c #B6322B",
"i. c #BD3331",
"p. c #C2362E",
"a. c #C33631",
"s. c #CC3A34",
"d. c #C73831",
"f. c #D23C37",
"g. c #D43C39",
"h. c #DA3E3B",
"j. c #836719",
"k. c #8D741E",
"l. c #875F21",
"z. c #836524",
"x. c #846B23",
"c. c #896F25",
"v. c #846B2D",
"b. c #8B6D2C",
"n. c #8C7326",
"m. c #8C732B",
"M. c #8B7B2A",
"N. c #917627",
"B. c #957B26",
"V. c #92752A",
"C. c #95792A",
"Z. c #9B7D2B",
"A. c #997922",
"S. c #8F7631",
"D. c #957C31",
"F. c #9A7E32",
"G. c #917430",
"H. c #DD403D",
"J. c #E2413E",
"K. c #9B8326",
"L. c #9D812C",
"P. c #9F8E2E",
"I. c #9D8131",
"U. c #A38926",
"Y. c #A3842D",
"T. c #A4882C",
"R. c #A98B2E",
"E. c #A28422",
"W. c #AC922C",
"Q. c #B29A2B",
"!. c #B69B2F",
"~. c #A28532",
"^. c #AB8B32",
"/. c #A88630",
"(. c #B18E32",
"). c #AC9132",
"_. c #B49333",
"`. c #BA9736",
"'. c #B39B31",
"]. c #BC9A36",
"[. c #BA9838",
"{. c #BBA32D",
"}. c #BCA532",
"|. c #C19E36",
" X c #C29D38",
".X c #C3AA2E",
"XX c #C3A236",
"oX c #C5AC31",
"OX c #CAAD34",
"+X c #C6A139",
"@X c #C9A539",
"#X c #CDAA3B",
"$X c #C8A236",
"%X c #D0AF38",
"&X c #CCB332",
"*X c #D2B435",
"=X c #D6BC33",
"-X c #DABD35",
";X c #D4B438",
":X c #DBBB39",
">X c #D8B63A",
",X c #DEC335",
"<X c #DFC138",
"1X c #DCC02F",
"2X c #E2C636",
"3X c #E3C936",
"4X c #E3C439",
"5X c #E6C939",
"6X c #EACD39",
"7X c #E9CA39",
"8X c #EDD139",
"9X c #ECD137",
"0X c #ECCF34",
"qX c #C8A643",
"wX c #D3AE47",
"eX c #E8CB49",
"rX c #ECD05E",
"tX c #DFC467",
"yX c #F4DB79",
"uX c #F0D572",
"iX c #EDD168",
"pX c #F8E07F",
"aX c #FDE582",
"sX c None",
/* pixels */
"sXsXsXsXsXsXsXsXsXsXsXsXsXsXsXsXsXsXsXsXsXsXsXsXsXsXsXsXsXsXsXsXsXsXsXsXsXsXsXsXsXsXsXsXsXsXsXsXsXsX",
"sXsXsXsXsXsXsXsXsXsXsXsXsXsXsXsXsXsXsXsXsXsXsXsXsXsXsXsXsXsXsXsXsXsXsXsXsXsXsXsXsXsXsXsXsXsXsXsXsXsX",
"sXsXsXsXsXsXsXsXsXsXsXsXsXsXW ] e [ Y.XX@.| ].R.o.F D.+XB.H F ).].x._ 0 w F sXsXsXsXsXsXsXsXsXsXsXsX",
"sXsXsXsXsXsXsXsXsXsXsXq ( I ! G I ~.*X7XW.K x..X=X^.#X3XXXV.] OX4X].+.> 7 ) E ^ sXsXsXsXsXsXsXsXsXsX",
"sXsXsXsXsXsXsXsXsXsXsX7 +.Z.( [ Z./.!.&XK.L K {.6X:X:X4X:XXXL.,X6X_.m.../ P Y G 7 sXsXsXsXsXsXsXsXsX",
"sXsXsXsXsXsXsXsXsXsXsX3 C.|.x.Z.+XN.Y W W E Y ~.#X7X:XXX4X<XXX4X=Xo.^.].x.Y  .! 8 sXsXsXsXsXsXsXsXsX",
"sXsXsXsXsXsXsXsXsXsXe P o.C.(.%X4X].(.&X1X&X).v...U.`.@X6X-XZ.K.Y.Y.*X4X}.Z.E U ) w sXsXsXsXsXsXsXsX",
"sXsXsXsXsXsXsXsXsXF ! U z.m.^.OX4X:X:X7X6X5X>X~./ Z z.`.4XoXH P Y.;X4X4X`.v.H W [ w sXsXsXsXsXsXsXsX",
"sXsXsXsXsXsXsXsXsXY Y I ~.].x.V.@X7X4X@X X%X6X:X(.) e Q ].^.w F.;X6X:X_.) < w Y [ w sXsXsXsXsXsXsXsX",
"sXsXsXsXsXsXsXsXsX^._.&XOX X^.XX:X}.T.v.} D.;X7X:X{ B..XL.| ] _.@XQ.K.V.S._.}.n.) w sXsXsXsXsXsXsXsX",
"sXsXsXsXsXsXsXsXsX_.XX6X<XXX`.>X9XW.A 0 q ..^.:X,XB.oX9X$.> W R.(.n.Q N.@X7X2XB.Z w sXsXsXsXsXsXsXsX",
"sXsXsXsXsXsXsXsXsXW N.XX4X3XB.!.8XOXZ.T F.^.o.^.#X[.>X6X$.2 Y I U.2X*X$X6X4X|.c./ q sXsXsXsXsXsXsXsX",
"sXsXsXsXsXsXsXsXsX; _ b.XX*Xo.K.:X4XOX~.*X:XY.C.R.;X4X>XO.] Y.Q.&X<X|.T.{.XX]._.v.0 sXsXsXsXsXsXsXsX",
"sXsXsXsXsXsXsXsXsX~ ) O.R.XXc.V.].5X5X+X-X4X#Xm.k.2X4X_.c.Z.+X7X7X].N.Y Y Y. X+XZ.0 sXsXsXsXsXsXsXsX",
"sXsXsXsXsXsXsXsXsX_. X,X6X2XXXZ.n.,X6X+XT.U.+Xv.' 3X*Xx.(. X X6X,Xn.~.[.`.T.x.| ~ w sXsXsXsXsXsXsXsX",
"sXsXsXsXsXsXsXsXsX~.^.&X,X4X<X_.I Q.*X+X@._ /.D.C.:X!.P Z.`.@X:XoXU ~.#X_.n.J ! e w sXsXsXsXsXsXsXsX",
"sXsXsXsXsXsXsXsXsX4 e I Z.@X6X&XY K B.|.v.q I T.@X XY.W Y B. X+X_.o.R.`.x.! e  .[ w sXsXsXsXsXsXsXsX",
"sXsXsXsXsXsXsXsXsX4 e I W N.#X%X_.o.I N.^.I.^ I. XZ.L._.`.I...^.+X].L.x.W H e Y [ w sXsXsXsXsXsXsXsX",
"sXsXsXsXsXsXsXsXsX8 G  .x.N.Y.].@XR.z.I _.[.w F.|.E Z.@X|.V.e ^.@X_.Y.n.Y ! w ] ) w sXsXsXsXsXsXsXsX",
"sXsXsXsXsXsXsXsXsX8 F I R.|.x.C.+X@XR.E _._.e F.|.x.L. Xm.I o._._.W ^.[.) 4 w w w w sXsXsXsXsXsXsXsX",
"sXsXsXsXsXsXsXsXsXsXsXG ~.+Xx.E Z. XXX_.Y.n.[ x.C.W c.C.` J o.N.n.Y N.V.e ^ ] F 0 sXsXsXsXsXsXsXsXsX",
"sXsXsXsXsXsXsXsXsXsXsX4 m._.c.I U /.].`.N.I Q Y Y E E U ! ( W Y Y Y Y I ! ] W G 8 sXsXsXsXsXsXsXsXsX",
"sXsXsXsXsXsXsXsXsXsXsX0 ] O.o.Y Y o.o.W W W E Y W E E E o.Y W E W o.o.Y Y o. .^ 7 sXsXsXsXsXsXsXsXsX",
"sXsXsXsXsXsXsXsXsXsXsXsXG ( U N.T.x.x.Y.c.Y Y Y W W Y Y Y W E W W W Y o.j.{ ( F sXsXsXsXsXsXsXsXsXsX",
"sXsXsXsXsXsXsXsXsXsXsXsXsXq P T.+Xn.m.+XL.Y x.z.Y W o.x.Q Y W T  . .W W Y / 3 sXsXsXsXsXsXsXsXsXsXsX",
"sXsXsXsXsXsXsXsXsXsXsXsXsX  L R.+X..@.+XA.x.].L.Y Y Y.`.n.Y W Q { F { Y F O   sXsXsXsXsXsXsXsXsXsXsX",
"sXsXsXsXsXsXsXsXsXsXsXsXA.o._ v.~.) +.+Xm.#.@XR.I H F.+XN.P ] E { q e ] z.Q j.(.sXsXsXsXsXsXsXsXsXsX",
"sXsXsXsXsXsXsXsXF ~.wXqX#X X} ! Y w @.].+.| `.T.I 7 S.|.N.H q [ { w 3 .. XwX@X#XP.) sXsXsXsXsXsXsXsX",
"sXsXsXsXsXsX, [ (.tXpXyXrX2XXXG.q = L V.( ~ m.k. .9 D.#XC.( w C C q z.qXyXaXyXeX3X1X$., sXsXsXsXsXsX",
"sXsXsXsXsXsX> | $XtXyXyXrX-X`.b.C z S L Z : J L L : ..F.W J V f j 8 Z.wXuXyXuXeX1XoXX.> sXsXsXsXsXsX",
"sXsXsXsXsXsX< ..|.XX|.|.@X].` k >.,.=.d f d d d d d f f d s s s j 8 ~.+X+X].+X+XI.0 0 w sXsXsXsXsXsX",
"sXsXsXsXsXe F.I.+..X=Xz.!.<X} - N >.;.=.e.a.i.i.i.i.a.r.<.N s a j 8 }.-X#.Q.=XM.I.oX#.> sXsXsXsXsXsX",
"sXsXsXsXsXe (._.< }.:Xr ).4X#.O i m ;.,.t.f.s.s.s.d.s.p.3.m i y * 9 &X<XF '.9X` P.8XC.> sXsXsXsXsXsX",
"sXsXsXsXsXe ^._.r ~.].F D.+X| @ a i c >.,.,.,.,.,.<.:.d g g s a * 9 &X3X^ '.6XX.P.8XM.> sXsXsXsXsXsX",
"sXsXsXsXsXsXsXZ.V T l.S R l.R q.u.2.m ;.;.;.c x x x i $ % s M w.e.l n.K.A j.U.A E U.I = sXsXsXsXsXsX",
"sXsXsXsXsXsXsXsXd a z 3.-.a =.w.f.t.5.5.<.=.g g x B B B B 2.5.s.i.x % & a y p f y & a g sXsXsXsXsXsX",
"sXsXsXsXsXsXsXsXi N 1.s.r.=.;.,.3.p.g.s.6.:.;.*.<.a.f.s.s.f.f.9.;.d f f i f f i s a s g sXsXsXsXsXsX",
"sXsXsXsXsXsXsXx N 6.p.g.y.;.>.=.>.7.s.g.p.t.y.t.y.f.h.H.h.f.y.2.x g i d M c s h s s s s sXsXsXsXsXsX",
"sXsXsXsXsXsXi x >.p.h.g.t.=.<.,.>.:.6.s.g.h.g.g.g.g.g.s.f.y.;.x i s s c >.M s s d h g s sXsXsXsXsXsX",
"sXsXsXsXsXsXu x =.y.h.h.t.>.p.u.;.;.,.3.s.h.h.g.h.h.y.3.4.1.,.c i i m >.>.M i i m ;.c i sXsXsXsXsXsX",
"sXsXsXsXsXsXc :.7.d.g.g.p.t.f.s.w.,.;.;.7.y.y.y.y.y.6.;.;.;.*.g g m ;.>.>.:.v g m ,.v i sXsXsXsXsXsX",
"sXsXsXsXsXsX:.6.f.h.f.g.g.g.g.g.g.6.;.>.>.,.>.>.>.>.>.>.,.M s i v >.>.>.>.>.;.g m >.c i d sXsXsXsXsX",
"sXsXsXsXsXsX:.3.g.h.f.g.g.g.f.g.g.s.t.;.w.d.a.p.a.d.7.;.,.M i m ;.>.>.>.>.>.>.g c >.c i d sXsXsXsXsX",
"sXsXsXsXsXsX3.u.f.g.g.g.g.g.f.g.g.h.s.7.a.h.h.h.g.H.a.6.,.:.c ;.>.>.>.>.>.>.>.m M ,.c s d sXsXsXsXsX",
"sXsXsXsXsXg u.H.s.H.s.H.f.g.g.f.g.f.g.g.g.g.g.g.g.f.g.f.6.;.>.>.>.>.>.>.>.>.>.>.>.>.n i s sXsXsXsXsX",
"sXsXsXsXsXg i.J.H.y.7.w.d.h.h.h.h.t.y.g.h.f.9.9.t.7.d.H.7.;.,.,.>.>.>.>.>.>.>.,.;.m x i % sXsXsXsXsX",
"sXsXsXsXsXg e.d.i.4.M M 4.a.a.a.a.<.0.d.f.y.*.m M m 6.y.3.*.;.:.;.>.>.>.>.;.:.:.v u i u   sXsXsXsXsX",
"sXsXsXsXsXsXb b b b s $ # * h b n =.,.<.0.;.%   # X i x g g g d v >.,.>.>.v . X X . o o sXsXsXsXsXsX",
"sXsXsXsXsXsXsXsXsXsXsXsXsXsXsXX # g x x g l 6 5 , < 1 t D & % u g M M v c i sXsXsXsXsXsXsXsXsXsXsXsX",
"sXsXsXsXsXsXsXsXsXsXsXsXsXsXsXsX          < &.%.1 9 %.&.sXsX  u g s s u   sXsXsXsXsXsXsXsXsXsXsXsXsX"
};
