/* XPM */
static char *wallback1[] = {
/* columns rows colors chars-per-pixel */
"50 50 84 1 ",
"  c #040404",
". c #0F0404",
"X c #0D0D0D",
"o c #110606",
"O c #140D0C",
"+ c #190E0E",
"@ c #0E100F",
"# c #14100F",
"$ c #1A0F10",
"% c #0F1010",
"& c #141414",
"* c #1B1414",
"= c #161817",
"- c #1E1817",
"; c #171819",
": c #1D1C1B",
"> c #201717",
", c #221D1C",
"< c #23201F",
"1 c #1E1E20",
"2 c #1F2021",
"3 c #242322",
"4 c #2A2424",
"5 c #272827",
"6 c #2C2827",
"7 c #2E2728",
"8 c #2C2B2B",
"9 c #322D2D",
"0 c #2E302F",
"q c #33302F",
"w c #302F30",
"e c #2F3131",
"r c #343434",
"t c #393635",
"y c #363837",
"u c #3A3837",
"i c #373939",
"p c #3C3D3C",
"a c #413E3D",
"s c #3E403F",
"d c #42403F",
"f c #443F40",
"g c #3F4140",
"h c #434443",
"j c #494646",
"k c #464847",
"l c #494748",
"z c #474948",
"x c #4B4D4C",
"c c #504D4E",
"v c #4D504F",
"b c #4E4F50",
"n c #514F50",
"m c #4E5150",
"M c #535655",
"N c #585656",
"B c #555857",
"V c #595857",
"C c #555758",
"Z c #585758",
"A c #575958",
"S c #5A5C5C",
"D c #5D605F",
"F c #605F61",
"G c #5E6161",
"H c #626463",
"J c #686566",
"K c #666867",
"L c #676969",
"P c #6A6C6C",
"I c #6D706F",
"U c #6E7170",
"Y c #717375",
"T c #757877",
"R c #757779",
"E c #767978",
"W c #7B7E7E",
"Q c #7C8080",
"! c #828585",
"~ c #838788",
"^ c #88898A",
"/ c #8B8F90",
"( c #929797",
") c #999FA0",
/* pixels */
"xlxx,SVMCbhzzMM6MMVAM,xBBBBBBBBtcMMclljjjhaqzMclxl",
"MMMM4VxpjxAMMMp,MMMMM,xMMMMMMMMrHVMMxcxzhkapMMMMMV",
"MMMM4MMVSMMMMMp-zzxxh-hxxxxxxMMtFMMMAMMMMx,pMMMMMM",
"MMMM<xUYSMCMmzp,99rt>O,,,,,,,,,,attxMMMMMSOaMMMMMM",
"vMMn,jaabhpiiiiwSSAM8DHSDSSSSSDSSFc3xmmbbxprxzxxxx",
",ttu,JJJJJJJJJLiDVMM9SMMMMBMMMMBMMMaxxhtraapaaaaa9",
"6MMS9)~~!Q~~~~QpvMMM4SMMMMMMMMMMMMMpFMMg:mMMMMMMv6",
"6MSM9(EYRUZxxMv1iMMM4SMMMMMMMMBMMMMpFMAi=xMMMMMh5t",
"6MMx4(RRRPzSmCC;iMMM4ZMMMABMMMMMMMMiFVA8=vMMMz8pLV",
"6MxM9/LJAzCMMMm@iMMM3MBMMmzzxxvvmMMpGAMe=xMxirSHBx",
"7vMM6PMMMCMAMCg@pMMM4hhhpreerryipps9GMMr%ipebHMMMx",
"4MMM7PMMMMAAMCp@iMMM4,63,::,,,:,,,4*GMM8 3hGAMMMMz",
"6MMj,Mpiyiy031&Xehzh,ZHHGGGGGHHHHGLhDMv3%xxxxMVMMp",
"ahj,dj1=1;&;&&;;ejlh9xMMSGGGGSAAmhr5p=&%%ip*dhpaap",
"MMM4YRYYRUYYYYYYRRRRhzMMAMAADSASHUH<DsipyMM4HMMMMM",
"MMM4PRRRRRRRRRRRRRRRpxMMMMMAmmASMAHjDMMMMMM,SMMMMM",
"app*7MHLKKGGGGSSVSAArat996,:*:33588$dppdppt+hyrpip",
"FFFM+*pjmMMAMMMMASMMqjVVVMMMNNccdvmS<cSDFFFFGGHSFD",
"VAVBM<o6gmMmMMMVAMMM8VMMMMMMMMMMMMMM4BHSSDDDDDDDSV",
"MBSVMM4>,pkzxxBMmxxz6nMMMMMMMMMzDMMM4:hMMxkMMMMMMM",
"zxxkkh3qm*<33,4,3,<<*hnMMMMMMMxVMMMM3=hMMMMzhvvzvv",
"SBBMMM8qA0MxcxxcxxnxtaMMMMMMMMMMMMMM52sBMMMMzmkMmV",
"AMMMMv99VrFMMMMMBMMBudMVMMMMMMMMMMMB8&sBMMMmzMMMMB",
"MMMMBj8qVquq9wwrrttr<9apie8;==;380ss=&sMMMMgAMMMMM",
"MMMMMs8qp####O#@O##O#&=    XX@@@@@@@ =sBvvvMMMMMMM",
"zkhsss<o=;=3ikzzzzxxMmmgiiXr88888858&rzxzhhzzvvvvv",
"ssiy0#o:5ybMMMMMMMMMCMmAMz+zggspsssh:riiiirssippss",
"322:o#3smMMmMMMMMMMMMMbkp5+zsggy08rr-:2:2:<522<::<",
"xld.;iBMMMMkAMMMMAMmxg50hG+zsm2;DPDM4dcvvxclxcccvv",
"MMv.rMMMMxgiSMMMMmhe2yMSCC$kzy^LdJMM4HVVMDMNMASDDB",
"MMvorMMvmMGGxmMMMi5zSmxhpz*xgUEQJxSM4SMMMMMMMMMMMM",
"MMvorMMMMMMMMmAAm0bhgpgpgp*vMEUUWPvM4SMMMMMMMMMMMM",
"MMvoyMMMMMMMMASMr5sspsssis&sUHBSPWIx4SMMMMMMMMMMMM",
"VBvorMMMMMMMAAvyHB5sissssi#GMMMBMDTY,VMMMMMMMMMMMD",
"VMv.rMMMMMMBAxhHshrssssssp&HMMMMMMMLaSMMMMMMMMMBDM",
"MMv.rMMMMMMMzrxsssrpssispy*DMMMMMMBS4JMMMBMMMMBDMM",
"MMvorMMMMMMhysssss5pssspsyOaiuuuuasi>VMMBvMMMMMMMM",
"vvk.rMMMMMpissssps2sssssse*YJJLLPLJJu,di03<<0szvmM",
"->>.3uutq3,<,,2:,<O<5<<<2:Olddddhddpa,+>-<,,>**-->",
"dMjr,VNMnh,VMMMMMMVVMOcNMMMNMNMM9dJJHJHHHHHHJHHJJn",
"vMsM<PDMMM,VvxkvmMDMm$FMMMmvxzh5hWUUUUUUIIIIIIIIIN",
"vBdM>IMMBMp*kMMxxddsdO49764<455*DUUUUUUIUKDDBMBBMj",
"vMhD>PMMMMM<vxxxvxxvxODFDDDDDBBsBIIIIUIILMBMMMMMMd",
"vMdM*PMMMMM9O,>O<4<<<+MMMMBVMMM83vMMBBBDBjAMMMMMMd",
"vMdM>LMMMMMj4MM4DBBAV4MMMADMMMM5#kMmmvxzhrDMBMMMMs",
"vNjv$LBMMMMh7MB<AMMMA4MMAVMMMMm5@kMAADDGKDvBMMMMMi",
"vMzs$jiqrq94<ut>AMMMM<MMDMMMBMv5@kMMMMMMMMAvvMMBMt",
"vMMr$adddddjddd<AMMMN<dsiiyrrrq:@kMMMMMMMMMMMzvDMt",
"nMMq*KBAADDDBBB6MMBMM<9=@@@@@@@X@pzzzjgghdghkvjszr",
"994<$DMMMMMMMkj<MMMMM<xdyrryyri<o<<<<<<<<<<<45<,<>"
};
