/* XPM */
static char *wallmetal[] = {
/* columns rows colors chars-per-pixel */
"50 50 60 1 ",
"  c #282F32",
". c #2D3336",
"X c #33363A",
"o c #383739",
"O c #34393E",
"+ c #3B3C3E",
"@ c #413E3F",
"# c #4C453F",
"$ c #373C41",
"% c #3A3E42",
"& c #413E40",
"* c #3D4246",
"= c #3E4449",
"- c #434345",
"; c #4A4643",
": c #464846",
"> c #4C4946",
", c #42464A",
"< c #494749",
"1 c #45494D",
"2 c #4B4C4D",
"3 c #504A47",
"4 c #514D4B",
"5 c #4F504F",
"6 c #51504E",
"7 c #464C51",
"8 c #4A4E52",
"9 c #504F50",
"0 c #4D5155",
"q c #4E5359",
"w c #525355",
"e c #595657",
"r c #585856",
"t c #51565A",
"y c #54595D",
"u c #5A5B5D",
"i c #565B61",
"p c #5A5E63",
"a c #605F60",
"s c #5C6166",
"d c #5E6369",
"f c #626264",
"g c #61666B",
"h c #64696E",
"j c #6B6D6F",
"k c #666C71",
"l c #696E74",
"z c #6C7176",
"x c #6E7379",
"c c #71767C",
"v c #73797F",
"b c #767B81",
"n c #797E84",
"m c #7C8186",
"M c #7D8288",
"N c #82868C",
"B c #84888F",
"V c #868B90",
"C c #8E9499",
"Z c #979CA1",
/* pixels */
"iglzzkkddditqq7piqipiiiiii==qqiqwtqqq00t008q07777,",
"ZCMbzldkhkbgbbbbbbbbxbbxbn0dMnbbcczzzzlzzkkdhkxnp7",
"mihw==77q77&%%q=%=$$$$%=7b=ih=$=77788200qyq877qxp7",
"vt42,7787q77===7=%$$$$$$$h=qh=pi-1<>,,;<===*%%%ii7",
"by-1ppii0070q777=71&%%$%%d=0z7qt:2>>::,::====7,qq7",
"lpw007==770080787q7277<%7g7ql=&&<2:1>>2787780swyi7",
"lp07=%==&77177777772<27<7p7ql0%&:02<2187=8080uwtq=",
"cp81,,777qq00000q7<<<87aii&7cpq00w00058=78qq,>1yq7",
"ci71711779qq0qq07<9728<ieq77bpiiyr000tq8888q8,1iq=",
"xp77088w79tttq077292277&&077bpigu00rrttwyq80w0wiq7",
"xi870099wtiiiqqqt822728&&i77nblq5555055q000qty0tq=",
"li0q09tttttiiqi0w9980&0&8p71nbq&15>5550r0q00tttti7",
"liqqqqwqtttiiiqiqq99<1qq7d77bl8<255555w0000==*,0q7",
"xd078080qqqqqqqiq99270qq0p77zli0r0w555000qq81=1y==",
"ziq780888qq0qiqq0q0qqqiqqp77zzppsyyrtwqwqiy00tydk,",
"lhiiiqi0tqqiqiiqqqwqtitqig77lbzlkssittqyqqqqt0qqx=",
"lzgddssssyyypyyyiiipapppph77lbgdt017=77777587087d=",
"lNmnzhddsssddssspppagghlzx07lMk7==*===7=11=*2uw7s=",
"kmzgstwwqqtyyttqqqqq0qitib77bCp7=1,:777788871w58i=",
"dcujp0111========,&%&,gw%l77ll7=1100577=7081#,*qs*",
"pbi9w>51::=========%%&92=d=7xg7=,0055::==888=:5wk*",
"pbi-@>517117,,117=,%%,@&%d%7lppw,001::,,*=50551qh$",
"ixi75115115777,7,=,,=,&,1go8lp98,0011:=====0857qd$",
"0zp85511255008877==%%&,&7ho7cp&&15055:::=717q778k$",
"8zg0088899w9tq00771%%%&,7g$7bd&80027511:,1,,000qh$",
"7lp7709<<4wwtt0000777,%7wh$7kpw8555257711,1==qqqd*",
"7lp778839990ttq0080q7,%,0k$=cd98:>580q881,11,00qh*",
"0hgq778899tqwtq0q78q77<<8h%=xp81<51=188051,,=1qyk=",
"0zki8887qqqqqqqqq09007770k=7xpq75508788q81,==70pk=",
"0bNxkfpitqqqtqitqqw97772ik77bli8780t7888005==18yk=",
"qnCNcpw0qqttiyqqi99807qqid7=cxwq0qqtq80q007,=700z7",
"inzp7,=77qttqqqtt000qtipplq=xh8qwyytqqtq0qqq7=70d7",
"qbp7,7000q000qqqqtiiiddxbVd*zdqtpyysyytytyt05=0ti=",
"ixq72010qqqqyyitttppsdssskd=zd080qtspipyq5080==0s=",
"pbqq2025qqtyyqyyqtqq877,7ps=0=,78rysssi07=050=80t=",
"iBp0015005qttq0qq8q0077787=.0ld:15yissty0550=0=0s7",
"inzq0120tt0www80000888500sk*Vc**15qyryqtq58q0q00i7",
"ixgi08200yywwwwtyt5050817yd*ms*=155wwyt07278qiy0s=",
"ip0hy0250yww4wwey0057551=qp=bg7,,,:5wiy52558qqyqz=",
"ii=id0020tw646wwr0005151=0y=zkds1,:100w5570500qgb7",
"yy=2dy050w6444666ww22:>1=qi:zype:,2,00050wwrwuhzz7",
"pp2wwsy02w644644555>>:-:=0y=hu<<2100000qwyyrtyu5y7",
"yyuf0ts05w4464466>>>:;->#8y*ld--78200wrtyr029w<*w1",
"qy-2:0ppw644444663;#-;uj58t*hg0,700wtrtr0522w1uut1",
"7p+o*:0uew444434>;###:>6*:qOzc00wruuutw5>3w29-2e01",
"=s$++*-0w6343333;##:**@oo17Ojzreuusrw2>533;20+o+q=",
"*d*++O*,>4443333>:*#%%$+O0=$hcruasr065>;;#;>w=+-q*",
"$d1**--,1884w4445>:**%$$Os7$gvdhgfiuur666622qw12q*",
"*dkydsypssddggisiut0870qtj8OhBzgyryggzgggssiiyiys=",
"$$.....OO*=100,OOOOOOOOO$$$ *$O-=,*==,,10058qw=5y="
};
