/* XPM */
static char *wallspace1[] = {
/* columns rows colors chars-per-pixel */
"50 50 84 1 ",
"  c #32271D",
". c #332A1D",
"X c #3A2B1F",
"o c #352D22",
"O c #3C2D23",
"+ c #3B3225",
"@ c #3E3629",
"# c #3E392A",
"$ c #402F22",
"% c #423325",
"& c #4A3526",
"* c #413927",
"= c #42352A",
"- c #4A352B",
"; c #443B2C",
": c #4B3D2D",
"> c #523E2D",
", c #453C31",
"< c #4A3E32",
"1 c #4B412E",
"2 c #52412F",
"3 c #454136",
"4 c #4D4232",
"5 c #4D443A",
"6 c #4D483A",
"7 c #524534",
"8 c #554936",
"9 c #594B36",
"0 c #53463A",
"q c #564A3A",
"w c #5A4D3C",
"e c #5E513E",
"r c #61533E",
"t c #534C41",
"y c #5A4E42",
"u c #555143",
"i c #5D5242",
"p c #5F5847",
"a c #575349",
"s c #5B5549",
"d c #5E5A4C",
"f c #5F5C50",
"g c #635443",
"h c #655945",
"j c #695B46",
"k c #60574B",
"l c #635B4B",
"z c #6B5D4A",
"x c #635E52",
"c c #66604F",
"v c #6D614C",
"b c #71634E",
"n c #75684F",
"m c #78694F",
"M c #656254",
"N c #6B6454",
"B c #6E6856",
"V c #666459",
"C c #6A665A",
"Z c #6D6A5C",
"A c #736651",
"S c #756954",
"D c #796C56",
"F c #746B5A",
"G c #7B6E59",
"H c #7D7057",
"J c #7D715B",
"K c #6E6C62",
"L c #716E62",
"P c #747165",
"I c #7B7364",
"U c #7F7867",
"Y c #75746A",
"T c #7A7769",
"R c #7C796D",
"E c #7D7C70",
"W c #81735D",
"Q c #837661",
"! c #867963",
"~ c #837B6B",
"^ c #817F74",
"/ c #848175",
"( c #8A8273",
") c #848378",
/* pixels */
"CCPPZLZPZMNNZZMPMCZfMMMdMMZUZZVVMpdFVRTPVMpdCPRFMZ",
"bbHWJHSHWvbvv4;41;##==;###:744##==#;1vDDSbhlADDbvF",
"vvSJDSvDWvvjqo4qeq877287@18ge8;*70>w5gvbvvhjzvnvhh",
"SAD!HAvD!h47+;478e9qqiiw#7ig8w1;777qw986iAzzvlnhgh",
"JDJSSAAHG.=;:::79r8wqwqq,wwg8w8<9>>097;21vvhhhljhv",
"1hSFievWI61;:-=:qjgqqq0<<wwywyghr00w991;4hve1;qhr=",
"q1e!Y41vWEy7:::<wjzw7><<-qywwyzzee99w8:6cve..3le#q",
"8q1h~R71hGRp8w77wzvg8X55<<t<O7gjy>wgew6NDe +uve+;w",
"qqq4hJR81qARxwq7ggw&-kywtyygk5-g0wwgjypAho;pA9o:48",
"qeee9eDYq;9STxw8q7o0zzqwegywgzk-<0wwuNj8+4pAqo;:78",
"qe8992qWEq8qbIxq&Otwzzwgjbjgww0k<@wqzb9+6lA9O;><08",
"wgwq777rFRpe8AIa0tgtggeqjzjg7qqyqa6NAr@qlSw+::778w",
"eww9:47wqS/dw4bUKwgggrr78w77ygwgwivS9;6MA7+6>q:0y8",
"qw8wqrqgeeW)3q8J^Lwwrgq88qq79gggavv6#=Mb9+779r7qew",
"qwwwegwwew9GRxhgGICg8qwywwq7qwgkNv7@6MA8=47wggw7hj",
"gerwgg741%68S/xw7vIV87whywy<>7yvh4;ilz4,=*qwgge8wh",
"ewq0q71O,gyq9W^M78SIC98gegw7;6Nv6=iBv1@q05$00w87qz",
"hg8gj7O50wgw77D~k72SZZq7egwwwFn1;wBH7=8e74t-7qeggb",
"jg8hz=97w0w8748APd;2bUL8ejwkDH1+qND71e88444t>yzgjb",
"ey0gk-w44<8814:8vIZVNAFVxFVFFladvz1O4974470<>ggggg",
"geyzk=w4777779>:1JJADnblzvhnzAHvv1*77q>78yw<>kgygg",
"gejzg=9:77718w>:7hD;*bD1=*7Di;8S3;9877<<:8w<:jgwgg",
"ggjgz=27<7<70qq89jv@<mD#7qrbq:hj#0w:779>7q8<>wezbz",
"ywgyg=7qw77:>8e08rD*8zW=wijSu1vJ-7w8qgew0qq<>04jgy",
">>><<O>qgwq9ww90evF#ebD;gvmWr6vn;4gwgzhgywq<&::09>",
"xxsttO8ygwwyjg0wrjS#eHH4jjbWierj@78gjvgqqwt4-tkxxx",
"kgg97o>yewqege>whjA@wDW3kibWi9rv#88wwwq7qgg5>>wyyy",
"bggyg=qggeegg00wrrh+7bW3gzjDi7rh;ww7<7078ww<-0>gjb",
"zgggj=wgyw8978eerbAdMzAdZZFAlZJNkw77<>qe8w8=-ggggz",
"g9ekk$ggee77417qkSAIbvzzNDDDJJJnIR81787e7qw<-ggggj",
"y9yggOwyrg8q8;1lDv;=pSe1188AJV11D~Y:798qy97,-gg>gg",
"90gzg%9<9gq781dDho#wDS*#whq4nFK14zGL7wgrwq<<-ygygg",
"gjjzhi=<wgjq0aAh+1pSv*-qwhe>1vSP74hFLeijyq7O0wwwgg",
"zzjzAyk5%0tylze+;cGc@*ebzghq1;gJTiehQYwqi;-t<gwwwh",
"zjgggjgyy=-dAe+1iAr@*rhbbgj77;;SIEvevFP4Oiy80ww88g",
"yyw>7hgg0tsAeo4ubj+=9qgjjgjg9278vQ)g8vAKlgg078878w",
"we>>9gyeesGe.1ulg+=4w9gggzzy>00w8hAK7+qDEhw78778w0",
"wewwwy0wlce+tfce=<74wwgjzjg>><7rg4jGPt6hvLt74788wq",
"yjgw9w9kB7+iBWjo-0jgy9wggzy>><7yu7%vSYi8qvT5<:778q",
"gje>>yNv9+6NHb=p<$eyeyggzge>0<<w&;ywzSTt1qAP777780",
"eje47BH9+wcHj;qe0t->tywwq8w884-OjygbehDP518vZ6:488",
"9je8pv1@qBnj#wqhg7sy&gk>0qg5q%=ygrygr8gSRa:7bZ58ww",
"8qqde;.6BHvo488ey7wgx<-===-@O0<<wq7eeq1hW(6*1lFlqw",
"qwch*o4NJvo1787988yggkkt,7ayii71gywrw82;jDP3*4AEs8",
"fpvlaMZbz+:8977::7gqqyw7,88gng77rgrw71:;7bbMlZDGRx",
"vizzhvbvG37:782;:8w77q44-8<gvggewww>:472eDNzhSDSAh",
"vhhzvDDASFCZae92:788:704=70gewhqqer>:pZZQ!AzlvDAvv",
"AhgzFGHDAvDvherew77q77w7=77ww748wrr87BFHD!vhhvDvvv",
"AvjvSSSHDvjhJYPPZMfMMfffacVZMddCNLCCMDJJWAjhhhbvnD",
"vvvvjjbvvhhhvvvveheeeeeqhhjShhehgrrzgvbbbheeghAjhv"
};
