/* XPM */
static char *wallback1[] = {
/* columns rows colors chars-per-pixel */
"50 50 37 1 ",
"  c #030403",
". c #070807",
"X c #070908",
"o c #0B0C0B",
"O c #0F100F",
"+ c #0F1010",
"@ c #131413",
"# c #161817",
"$ c #171918",
"% c #1B1C1C",
"& c #1E201F",
"* c #1F1F20",
"= c #1F2120",
"- c #222423",
"; c #262827",
": c #262728",
"> c #272928",
", c #2A2C2C",
"< c #2E302F",
"1 c #2E2F30",
"2 c #2F3031",
"3 c #323434",
"4 c #363837",
"5 c #353738",
"6 c #373939",
"7 c #393B3B",
"8 c #3E3F40",
"9 c #3F4141",
"0 c #414344",
"q c #474748",
"w c #464848",
"e c #494B4B",
"r c #4D5152",
"t c #55595A",
"y c #5D5E5F",
"u c #5C6162",
"i c #636A6A",
/* pixels */
"----O:-%==%====o=====.%========@>,>>:--=%*%$-:;---",
"%=&=o-%$======o.===== %===**===+1--%%%%%%$##&&&&**",
"-%-=o=33>=====. +#+%+ @#$$@#$%*+,=*=---:>>o@&&&=*&",
"&=%=O:772===%+ .@+#@..oooooooooo%#+#%-%%-:X#&&&==*",
"%%%$.#oo*$o.   @;-==O2>;;:;--;;;;>:o$$$$##$+%@@$#%",
".@@@o00q9w9www0%>-&&o2*==&=&=======%::-$@%$$%$$$#O",
"o=&:@irrrerrrrr%===&o2==&&==*==*%=%#>=&$ %*=**&=# ",
"O=;=@u0007;--;-.+=&&.2==&&==%*=*===#>=-# %%***%O.*",
"O==%@y0093%>--& +%==.1*=&=========*#;--o %==%@.%6>",
"o==-@t31:%-*==% +==%.=*==$@+@#$$%%=@>-=o %%$.@3,==",
"o&-&+6**=*=-&&@ +=*=.$+Oo     ...ooo,=*@   o;2=&**",
"O&&&+6%***--&%@ +===o.o.......... . >-=o  =,====*%",
"O&%%o:@@@+Oo.   o@@+.1,,,1,,,1,1,,3->%$  $##$%-%%O",
"%&-o-:.         #::;$====;,21,,11>%+%    @$ %%$$$$",
"=&&O7088788878889099-=&&====;-=-176@,@@@@==o,-**&&",
"&&&o6008080900999909$=&========:==,-,&&&&%&o>=%*&&",
"@@@ .&,32,,,;;::::==+%@Ooo.   .oooo %@@@@+O $@oOOO",
"333,. O@&&&&&&&&-:==O>33212,,1>:>>,3@>333333333355",
"----=O  o%&&&&&-====o2====*=-%=%>=&&o,,>>,,,>>;;--",
"==-=&& ..XO@##-%%#@+ -===*=%%==-<=&&o $==$$*====&&",
"%%%$$# #&     .      ==%&&===&---%=&o #&=*=$#$%$&&",
"--=-&%.#-o;&&=-&====@%==&&&===-&%-=&o #=**%-$:%-&-",
"-&==&%.@-O,&%=&&====$$=-&&==&-%==%=-o #%*%-%%=--&&",
"&&&&=O.#-O@Ooooo++++.+@$@@o.   oo@#$  #%%-%$-=%=&&",
"&&&&&X.#+                             #&%&%-&&&&&&",
"@Ooo..      +#$$$$$%=%%@@o o    .    o$#@++@##$%$@",
"...      @$=%&&&%====***%@ @......oo    ..  .. .XX",
"       O%===&&&&&&%=**$@o.o@.o@+OO##o             ",
"::%  @-%&&&*=&&&&==%@o.@-,.OX%+o<6;=o->>;;;:>,,;,>",
"%=% o%&&&%$*;&&&&$@.o%>:--.@##yw=<==o3:-=:&&&-;;;=",
"=&% O&&=-;,>:===*o@-;%#Oo@.$$w0rw::%o,&&&&&&&&&&&&",
"&&% O&=&===&==--$@$oo.. o .-3076ww:-O,&&&&&&&&&&&&",
"&&% @%=&&&&&&--%O+...XXXXX.;7,-;3we-o,====&&&&&&&=",
"-=% o-=&&&&%--$#4,..XXXXX..<&&&&&;9eo,===%&&&&&&&;",
"-&% @%=&&&&--#%3o+$+XXXX...,&&&&&&&3-<&&=&&&&&&==&",
"&&$ o-%&&&&&@O:o..@+XXXX. o,&&&&&&&;O<&&==&&&=--&&",
"&&% o%-%&&%OOoO...+oo...X. %@#@@@##@.,&&&%%&&===&&",
"%$# o-%-&&oo..XX..o.oo... .923334433$o@.    .O@$&&",
"    o##@O                  =#@#@@@@@@.            ",
"->:$o3,>;-@,>,,,,,,1, 1>,,,,,,,,#;776767777777677<",
"-=%-o4-&=&o:$#@%==;&% 2==%%%%$#o;w476776777777744,",
"-=%=.4=&&&#o-&%#++@#%.@#@@@@@@@o477777777<;--&==&$",
"-**-.3&&&&%O%###@##@@ 2,>>;::--#<47777773=&&&&&&&$",
"-%%=.3&&&&=o .. @++++.-=%---&%&o.%&&&&--=&-&&&&&&@",
"-=%=o3=&==%@o&&o;==--O:&=--&&&%  #===&=%%$;&&&&&&O",
"-=$$ 3*&&==@O-&O-&=&&o:&--=&&&%  #&--;><<<;;&&&&&O",
"-&%o *Ooo.. oooo-&&&&o;-;%&&%&$  $&&=&&&=&-;-&&=&O",
"-&=o =====-===-o=&&&&.%@ooooo.   #&&&&&&&&&&-&&;&o",
"-&% .<---;;---=@==&&&.O.         o@@+OOoOXoO+&&O+X",
"@o. .;&=&====$%o&&&&& %#OOOO@oO.                  "
};
