/* XPM */
static char *wall2[] = {
/* columns rows colors chars-per-pixel */
"50 50 221 2 ",
"   c #03041A",
".  c #090D2F",
"X  c #04062A",
"o  c #040533",
"O  c #060B35",
"+  c #0B0D35",
"@  c #0A0E3A",
"#  c #0E1236",
"$  c #0B123B",
"%  c #08193F",
"&  c #151B3D",
"*  c #12153A",
"=  c #14172C",
"-  c #051745",
";  c #0D1441",
":  c #041847",
">  c #0D1B46",
",  c #0B1C49",
"<  c #121543",
"1  c #151A45",
"2  c #191C46",
"3  c #151D4A",
"4  c #1B1D4C",
"5  c #1B1E53",
"6  c #171B50",
"7  c #0B0F40",
"8  c #12224D",
"9  c #1D224C",
"0  c #1F2745",
"q  c #0B2A5A",
"w  c #082553",
"e  c #142553",
"r  c #1E2353",
"t  c #142C57",
"y  c #1F235B",
"u  c #142D5C",
"i  c #1A2B5A",
"p  c #19325E",
"a  c #12305E",
"s  c #0F224E",
"d  c #21244F",
"f  c #262C48",
"g  c #222554",
"h  c #242955",
"j  c #21245B",
"k  c #25295C",
"l  c #2A2D5C",
"z  c #2C335D",
"x  c #2F3756",
"c  c #353D5D",
"v  c #0B2E64",
"b  c #0C3165",
"n  c #0D326B",
"m  c #133264",
"M  c #1B3363",
"N  c #153B6C",
"B  c #1A3B6C",
"V  c #153E71",
"C  c #1B3E71",
"Z  c #192A60",
"A  c #272B64",
"S  c #292E63",
"D  c #252A64",
"F  c #2C3265",
"G  c #2E356B",
"H  c #2F386E",
"J  c #31376C",
"K  c #34396D",
"L  c #3A3C6D",
"P  c #313364",
"I  c #2F3572",
"U  c #2F3870",
"Y  c #313572",
"T  c #333A73",
"R  c #3A3D74",
"E  c #363D7B",
"W  c #15447A",
"Q  c #1D4A7C",
"!  c #184376",
"~  c #21426D",
"^  c #36416A",
"/  c #3A4165",
"(  c #234D7C",
")  c #3C4274",
"_  c #374078",
"`  c #3B437C",
"'  c #3E4A7C",
"]  c #394773",
"[  c #42457B",
"{  c #444D7D",
"}  c #434779",
"|  c #46527C",
" . c #3A3F80",
".. c #1A4C82",
"X. c #1D548B",
"o. c #1F588E",
"O. c #1D5691",
"+. c #1E5895",
"@. c #1F5A99",
"#. c #3D4483",
"$. c #3E458A",
"%. c #3F4882",
"&. c #245184",
"*. c #23558A",
"=. c #24598D",
"-. c #29588B",
";. c #215C93",
":. c #2C5E92",
">. c #215E9A",
",. c #38518C",
"<. c #25639B",
"1. c #2A659B",
"2. c #2D689E",
"3. c #276398",
"4. c #316699",
"5. c #306B9F",
"6. c #3E729A",
"7. c #2A6AA2",
"8. c #2B6DA9",
"9. c #2665A1",
"0. c #326EA3",
"q. c #2D74AC",
"w. c #2C70A7",
"e. c #3370A5",
"r. c #3376AD",
"t. c #3A7AAF",
"y. c #3F76A0",
"u. c #2F77B1",
"i. c #2F78B0",
"p. c #3176B1",
"a. c #327BB4",
"s. c #3B7DB2",
"d. c #357FB8",
"f. c #424B85",
"g. c #4A4C84",
"h. c #41468A",
"j. c #444D8B",
"k. c #4A4E8A",
"l. c #424784",
"z. c #465283",
"x. c #4B5485",
"c. c #4E5B86",
"v. c #4C538C",
"b. c #4F598B",
"n. c #47508F",
"m. c #53558C",
"M. c #515D8C",
"N. c #464D93",
"B. c #494E95",
"V. c #404692",
"C. c #475090",
"Z. c #4A5294",
"A. c #4E559C",
"S. c #4F5A92",
"D. c #535692",
"F. c #535B94",
"G. c #5B5C94",
"H. c #51569D",
"J. c #55599A",
"K. c #5B5E9B",
"L. c #53608C",
"P. c #58658F",
"I. c #566392",
"U. c #586694",
"Y. c #5B6895",
"T. c #5C639B",
"R. c #5D6A9B",
"E. c #62639C",
"W. c #606D9E",
"Q. c #616196",
"!. c #5157A1",
"~. c #5559A4",
"^. c #565CA9",
"/. c #595EAC",
"(. c #585AA4",
"). c #5E62A1",
"_. c #5B61AE",
"`. c #5F6DA0",
"'. c #417AA5",
"]. c #5E63B3",
"[. c #6366A5",
"{. c #646AA5",
"}. c #686AA6",
"|. c #666AA9",
" X c #6A6DAC",
".X c #6165A8",
"XX c #6471A4",
"oX c #6C71AD",
"OX c #6B78AC",
"+X c #6975A6",
"@X c #7072AE",
"#X c #6064B6",
"$X c #6267BB",
"%X c #6469BD",
"&X c #6E71B2",
"*X c #6D7CB5",
"=X c #6F7EB8",
"-X c #7174B5",
";X c #7376B9",
":X c #7679BA",
">X c #7A7CBB",
",X c #767CB4",
"<X c #6A6DC3",
"1X c #6D71C5",
"2X c #7679C9",
"3X c #3781BA",
"4X c #3984BC",
"5X c #3F81B3",
"6X c #4183B6",
"7X c #4088BF",
"8X c #4A8AB6",
"9X c #7482BC",
"0X c #7885BF",
"qX c #3C89C1",
"wX c #408EC5",
"eX c #4695CA",
"rX c #7D8BC4",
"tX c #7886C0",
"yX c #7E81D3",
"uX c #8283C3",
"iX c #8588D8",
/* pixels */
"4.1.1.4.e {.R.Y.Y.c.] } | c.c.d {.[.[.[.[.9 _ f.f.f.f.f.f.f.f.S z.b.b.z.{ z.{ f.| { ^ B ;.4.:.=.-.1.",
"4X4X4X4XM XXR.{ z.z.Y.Y.XXY.{ g {.[.|.-X X4 ` f.f.f.f.j.A.A.Z.S OX+XR.R.T.U.U.I.M.m.x.*.d.qXd.q.r.a.",
"4X4X4X4XM {.G.M.U.L.L.R.Y.W.{ 4 K.K.|. XK.4 T $.%.` _ ` %.} %.F R.`.R.XXXXW.W.R.W.F.g &.d.3XqX4X4X3X",
"4X4X4X4XM M.OX*XG.L.W.W.L.z.| r L R L T 4 $ 8 3 3 8 8 1 8 8 8 8 ] ] K c.I.I.{.XX{.+X< ;.qXd.i.d.a.a.",
"d.d.d.d.e x.f.z.F.} { ' K ] L T  X&X|.[.K t.a.a.a.q.a.i.i.a.i.d.a.3X0.0 M.T.T.U.T.U.` *.q.<.9.i.i.q.",
"r ' ' ' r K.J.J.J.H.S.Z.j.D.D.R  X X X{.P e.q.q.q.q.q.q.3X4X4X4Xa.d.4X&.G.Q.G.} G  .T U U T E `  .k ",
"F XX{.+XS iX2X1X<X<X2X1X%X<X2XT ).-X X XS e.r.q.i.q.q.q.4X4X4X4X4X3X3X=.>X-X-Xm.5 V.f.f.C.C.j.f.#.r ",
"F XX+XY.l iX<X<X].].B.h.` V.N.9 f.[.[.|.l 0.q.p.q.q.q.q.3X3X4X4X3X4Xi.(  X X,X} ; j.j.f.f.f.%.T r I ",
"F W.XXc.h yX<X<X<X].E N.%.j.C.& l.[.[.-Xl 0.q.r.q.3Xq.q.d.3X3Xa.u.q.q... X X}.K < #.f.f.B.E k Y ].H.",
"F W.I.W.F 2X].].!.$.C.f.%.%.%.# l.[.[.|.h 1.q.q.i.2.<.<.<.7.8.a.d.d.q.Q  X}.}.L $ ` f._ H I ^./.!.N.",
"F I.}.XXl ].A.A.A.!.A.A.A.A.#.# l.|.[.[.l *.>.=.*.W W ....X.@.+.>.>.>.C -X X XL $ G Y D N./.!.!.!.j.",
"l XXW.U.S _.j.N.A.j.S.!.!.A.T # l.|.{.[.F 3 M i e e t e s e i Z Z e i <  X X[.P o j h./.!.H.H.!.A.h.",
"F {.W.| g h.H G G G F F y 6 ; # E m.v.m.g K.-X@X&X&X-X X&X&X;X>XuX&X@Xl.-X&X[.l @ #.j.N.B.Z.H.H.A. .",
"x.m.m.4 [ x.h 3 h 3 4 8 6 8 3 1 F { { x.z G.[.[.|. X X-X X.X}.E.G.} L l g.4 1 1 1 } [ < m.m.x.g.g.g.",
"[.[. Xl *XtXrXrXtX9XtXtX0X*XtXrXrX9XrXuXg.D.[.[.[.[.-X X|.|.@X-X-XuX,Xh oXm.k.k.l.}.|.g >X:X;X;X;X-X",
"[.}.[.l XX=XrXrXrX0X9X0X9X=X=X9X9X9X0XtX} m.[.[.|. X X|.[.[.}. X X XuXg.>X X|.{.[.|.|.g ;X;X X[. X X",
"l.g.} 2 h T.OX*XOX`.`.OXR.Y.U.U.I.P.L.P.F ) [ R J F A y e y F D S G J 6 v.[ [ g.l.[ R # g.[ ) [ l.[ ",
"6X6Xr.4.$ 1 z.I.R.L.P.R.L.P.L.c.L.P.L.L.z ' S.S.S.F.v.x.b.b.z.z.^ z.b.S.r :.e.t.t.t.6X6X5X6Xs.s.t.p.",
"a.a.r.q.w.u o F z.L.U.L.L.L.L.P.P.Y.L.L.x b.P.L.L.L.L.L.P.L.L.L.c.L.L.L.h q.d.d.4X3XwXwX3Xa.a.a.p.p.",
"q.q.i.q.q.q.u < 0 ^ | x.| | L.U.L.L.I.' h z.L.L.M.L.L.L.L.L.c.f.U.L.L.L.f w <.d.p.1.7.a.q.q.q.q.q.q.",
"2.2.1.1.<.>.m L T.1 0 g d 9 0 9 e h 9 0 $ } c.L.L.L.L.L.L.L.b.P.L.L.L.L.0 q 2.a.q.q.q.>.;.<.7.q.<.9.",
"a.a.a.q.q.q.N L &XJ K.K.K.K.K.J.K.K.K.[.L ) L.L.L.L.L.L.L.c.c.L.L.L.L.L.f q ;.i.q.q.u.i.2.7.;.s.r.r.",
"a.q.q.q.a.8.B K  XR  X|.[.[. X XoX|.[.|.[ } L.P.L.c.I.L.L.L.L.L.L.L.L.P.f w O.3Xq.a.4Xd.9.q.q.i.3Xd.",
"q.q.q.q.4X8.V L @XR [ ` K K R ` R ) ) [ g h / c c x f & = * & 0 f x c c = , O.q.r.3X4X7.d.3Xd.3Xu.r.",
"4X4X3X3X3X>.V K [ $ @ 7 7 @ @ 7 7 O @ + @ # <         : : - - : - : : : X w ;.i.p.p.p.d.u.qX4X4Xd.i.",
"8.8.7.>.o.X.q + < 3 3 y G E ` ` V.` ' %.f.j.%.T G G . W ! N N ! N ! N ! % W <.2.q.8.8.9.9.p.a.d.a.u.",
">.O.o.O.! - O 6 r H h.A.j.l.!.j.n.f.f.f.f.f.f.f.%._ $ ;.X.X.X.o.X.X.o.;.w ! o.@.>.+.+.O.>.@.>.>.>.9.",
"n n b v O 7 y E j.l.j.j.A.j.j.f.f.f.f.f.f.f.` E F r $ ;.X.X.<.W C B ! Q , w b n n n v V v b v q b b ",
"G.G.k.o 3 S j.Z.A.Z.j.T Z.j.f.j.n.f.j.%._ J r j Y N.% ;.X.7.t s r.4Xa.q.i g.Q.Q.Q.Q.E.Q.G.D.m.G.D.D.",
"-X;X.Xo I j.j.Z.j.` T G !.Z.n.j.j.%._ r 2 D $.N.V.,.# ;.<.~ 8X6.( 3Xr.q.u @X>X;X;X:X;X&X-X-X:X>X>X&X",
":X&X Xo I !.A.N.V.j.Z.A.j.N.A.A.C.G y E N.$.E T J E # 3.( 6XeXeX'.&.q.q.u [.&X;X&X&X;X;X-X;X;X;X;X-X",
"{.&X Xo I A.Z.Z.A.Z.Z.Z.j.%.Z.A.%.j ` T J J H J G H & 4.-.qXqXeXeX'.3.q.p [.[.[..X.X&X;X|.|.;X;X|.|.",
"|.[.K.o S j.j.j.A.Z.C.,.j.j.v.C.S r H H G G H J J F # ( 4Xa.q.i.4XeX'.3.a {. X&X|. X X&X{.[. X;X&X@X",
"{.[.E.o G j.C.C.A.j.A.C.Z.v.` H B.$.9 J H J J H J F . 5Xq.q.q.q.q.a.7X6Xs {. X X-X;X;X X[.[..X X;X:X",
"@X|.).o I A.A.A.Z.Z.A.A.A.` J A.T T A I G J G J H F % 3Xq.q.q.q.q.q.q.5XH {.[.[.|.-X;X;X&X&X[.;X;X;X",
"-X X[.X F A.H.A.A.Z.Z.A.%.A #.I Y J A G G J G J G z . 3Xw.q.q.8.q.q.q.i.Z @X X[. X-X;X;X;X;X&X>X;X&X",
"-X|.(.X F A.Z.Z.Z.j.Z.R G Y E I G J r G H J J J H z . ( ( Q ( Q Q ( ( ( > [.|. X&X&X&X-X;X;X;X;X;X;X",
"@X|.F.X G Z.j.j.j.j.G F G Y G T Y H 5 H J T G J G M * 2X:X-X;X;X,X:X:X-XR 9 k.l. .I I Y #.v._. X&X;X",
"5 5 4 o y Y Y S A 5 < 3 4 1 1 1 1 2 . 2 9 1 2 2 1 1 + m.g.g.g.g.g.g.g.l.[ d * 4 y 5 y j j 2 5 5 y j ",
"-.e.:.U , T.K.K.F.g.4 E.[.T.K.K.K.E.E.E.K.+ D.K.T.E.}.}.K.T.E.K.P J H.B.A.B.H.(.~.(.~.(.(.(.(.(.(.h.",
"2.u.*.r.i :X|.[.[.[.9 [.K.K.J.K.[.[.|.[.).@ &X|.[.). X XK.F.v.x Y ].].^.^.^.^.].$X$X$X$X$X<X$X$X$XB.",
"2.q.-.r.3 >X{.|.[.[.l.* m.[.[.K.D.k.g.g.k.+ i M M p p M p p M > H.].].].].]._.$X%X.X^.!.!.!.!.A.!.#.",
"1.q.*.r.3 >X[.[.[.[.[.d K.K.K.K.Q.G.J.J.J.+ '.d.i.a.a.4Xa.3Xw...j.^.]./.].].$X$X].H.H.H.!.A.A.!.!.$.",
"2.q.*.q.> :X[.|.[.[.[.L O 8 e + g h h h h + e.p.i.3Xa.i.q.3X3X! 5 j.Z.j.j.A.Z.z.B.h.!.!.A.!.!.A.!. .",
"2.q.*.q.3 ;X[.[.[.[.{.D.a q.q.i @X|.[.|.[.l 0.4X4X4X7Xd.3X3X3XN ; h.!.A.A.j.j.#. .G /.A.!.!.!.!.Z.E ",
"7.4X1.2.< :X{.[.[.[.{.m.p i.q.i |.@X|.|. XS s.4X3X4X4X4X3X3X3X! $ h.!.!.!.H.A.A.A.^.h.A.A.B.Z.$.f.G ",
"1.q.8.=.% { ) L R K P l 8 Q Q 3 -X X-X X-XS s.4X4X4X4X4X3X3Xa.! $ %.A.!.Z.f.N.l.f.j.N.#.#.,.j.%.j.S ",
"1.p.d.X.- ) ) ) ) ) ] } ] ] ) d -X;X|. X-Xl 4.3.;.=.*.X.Q ! Q t @ E N.Z.j.f.A.A.A.!.!.v.l.$.A.J.!.Y ",
"3.q.a.X.> XXR.I.I.U.Y.L.P.I.L.z &X&X X|.&Xk A 1 @ + @ @ + + + X . G _ #.R T ` #. .E E T #.Z.l.T %.Y ",
"M ! N m $ `.U.I.L.L.P.L.L.| { 0 [.[.[.[.[.9 ` T F F F F F F F 4 X 2 1 1 4 1 2 1 2 3 5 1 r j 5 < 6 < "
};
